<svg viewBox="0 0 132 45" xmlns="http://www.w3.org/2000/svg" fill-rule="evenodd" clip-rule="evenodd" stroke-linejoin="round" stroke-miterlimit="1.414"><g fill="#98002e" fill-rule="nonzero"><path d="M8.766 38.716c.062.041.139.088.233.145l-.046.076c-.149-.084-.216-.037-.314.128l-.61 1.026-.105-.068-.229-1.599-.416.7c-.096.161-.088.269.03.349l-.047.081a12.95 12.95 0 0 0-.276-.19 1.745 1.745 0 0 0-.169-.099l.049-.082c.151.077.217.03.31-.125l.49-.824c.009-.095-.03-.155-.12-.22l.045-.076c.049.04.11.08.179.125.074.049.147.096.216.133l.212 1.379.348-.585c.098-.164.093-.256-.036-.344l.045-.076c.091.065.163.114.211.146zM9.22 39.872c-.197.406-.159.688.101.828.262.14.477.001.68-.418.202-.415.166-.695-.106-.841-.254-.136-.471.01-.675.431zm1.184-.023a.796.796 0 0 1-.046.618.728.728 0 0 1-.464.407.819.819 0 0 1-.628-.077c-.225-.121-.366-.266-.442-.48a.805.805 0 0 1 .045-.641.74.74 0 0 1 .47-.414c.19-.058.403-.029.611.081.232.125.378.281.454.506zM12.148 40.407c.068.028.152.061.254.098l-.032.084c-.161-.055-.219.005-.288.184l-.427 1.124-.115-.048-.495-1.531-.292.767c-.067.175-.04.281.089.338l-.033.087a11.156 11.156 0 0 0-.303-.134 1.747 1.747 0 0 0-.183-.067l.034-.09c.161.048.219-.01.284-.181l.343-.901c-.007-.095-.055-.148-.156-.195l.032-.083c.055.031.122.059.198.09.081.034.161.068.235.091l.442 1.318.243-.64c.069-.18.048-.271-.093-.333l.031-.083c.101.047.179.082.232.105zM14.684 41.107c.07.018.158.039.264.062l-.022.087c-.166-.032-.216.035-.261.223l-.282 1.174-.119-.032-.685-1.447-.192.799c-.044.184-.005.284.131.322l-.022.093a8.032 8.032 0 0 0-.317-.092 1.625 1.625 0 0 0-.19-.04l.022-.094c.167.025.216-.041.259-.22l.226-.94c-.019-.093-.073-.139-.179-.172l.021-.086c.058.022.128.041.207.061.085.023.168.045.244.057l.605 1.245.161-.669c.045-.187.013-.274-.135-.316l.021-.087c.105.033.188.057.243.072zM15.431 42.028c-.063.452.06.706.349.75.291.044.452-.16.516-.625.064-.46-.056-.714-.358-.76-.282-.043-.442.167-.507.635zm1.114-.422a.794.794 0 0 1 .145.603.76.76 0 0 1-.314.541.82.82 0 0 1-.618.139c-.25-.038-.428-.128-.566-.306a.796.796 0 0 1-.153-.622.769.769 0 0 1 .317-.55.802.802 0 0 1 .604-.129c.259.04.444.137.585.324zM17.6 42.122c.21.01.295-.076.305-.29.008-.181-.076-.269-.265-.278-.068-.004-.073.008-.074.04l-.023.523c.02.003.039.004.057.005zm.087.763c.158.008.244-.098.253-.315.011-.226-.093-.33-.329-.342a.864.864 0 0 0-.073-.001l-.017.387c-.008.191.03.265.166.271zm-.389-1.447c.13.006.255.003.38.009.406.02.6.147.589.398-.008.189-.152.305-.417.331.318.057.488.197.477.44-.012.272-.237.407-.667.386-.121-.006-.256-.022-.406-.03a4.8 4.8 0 0 0-.296-.002l.004-.099c.167.005.209-.041.216-.202l.042-.956c.007-.154-.028-.197-.193-.208l.004-.094c.101.014.191.024.267.027zM19.044 41.47c.127-.004.256-.01.386-.018l.002.094h-.024c-.16.006-.183.055-.179.211l.024.936c.005.177.033.22.215.219l.002.092a13.598 13.598 0 0 0-.772.023l-.003-.092c.183-.01.208-.055.203-.232l-.024-.936c-.005-.157-.032-.204-.192-.199h-.022l-.003-.094c.15 0 .279-.001.387-.004zM20.58 41.367l.103-.01c.011.131.026.275.046.431l-.098.009c-.063-.214-.213-.324-.395-.307-.133.013-.211.106-.2.228.011.131.106.164.271.224.348.128.542.225.567.508.025.294-.163.508-.48.539a.505.505 0 0 1-.407-.111l-.016.114-.103.011a5.382 5.382 0 0 0-.043-.487l.101-.01c.083.268.226.393.421.374.164-.016.258-.122.245-.274-.014-.156-.126-.2-.328-.274-.296-.105-.449-.215-.472-.473-.023-.262.139-.45.404-.476a.503.503 0 0 1 .367.085l.017-.101zM22.513 41.047l.101-.021c.025.129.055.27.091.423l-.097.02c-.085-.205-.246-.297-.425-.259-.131.028-.198.129-.175.249.025.129.123.15.293.192.359.087.562.161.616.439.056.29-.109.524-.42.591a.5.5 0 0 1-.416-.064l-.005.117-.101.021a4.053 4.053 0 0 0-.093-.478l.099-.022c.111.257.266.364.457.323.162-.034.244-.151.215-.3-.03-.153-.146-.185-.354-.234-.306-.071-.469-.163-.518-.416-.05-.258.091-.464.351-.52a.498.498 0 0 1 .374.042l.007-.103zM23.525 41.653c.123.437.336.614.616.527.282-.088.347-.344.219-.795-.126-.446-.336-.624-.629-.532-.273.085-.334.347-.206.8zm.843-.874c.183.099.31.262.372.483a.79.79 0 0 1-.069.63.864.864 0 0 1-.506.398c-.242.075-.44.072-.635-.028a.76.76 0 0 1-.388-.497.796.796 0 0 1 .069-.64c.1-.18.273-.313.496-.383.25-.078.459-.07.661.037zM25.098 40.293c.096-.04.214-.091.353-.155l.032.086-.012.005c-.147.061-.168.117-.115.258l.298.784c.082.215.159.261.365.175.228-.095.311-.244.269-.485l.084-.035.154.432c-.226.089-.434.177-.626.256-.187.08-.391.17-.608.266l-.034-.09.022-.01c.133-.055.144-.124.084-.283l-.336-.886c-.049-.129-.107-.152-.242-.095l-.01.004-.033-.086c.124-.047.241-.093.355-.141zM27.344 39.268c.093-.047.17-.09.233-.128l.038.08c-.129.09-.143.168-.069.325l.224.475c.085.179.136.323.115.472-.025.18-.155.341-.379.457-.207.108-.381.137-.542.077-.128-.047-.221-.171-.316-.373l-.238-.504c-.085-.18-.131-.22-.299-.146l-.038-.08c.116-.055.227-.11.333-.166.071-.037.186-.099.351-.19l.038.08c-.158.095-.163.157-.083.327l.254.537c.144.305.288.393.543.259.301-.156.315-.357.155-.695l-.225-.475c-.077-.163-.143-.2-.294-.14l-.036-.077c.075-.034.153-.072.235-.115zM27.966 38.881c.092-.059.176-.117.254-.174l.905.671-.195-1.135.146-.088c.116-.076.214-.146.303-.21l.045.076c-.157.106-.155.17-.068.317l.474.798c.077.129.136.145.288.053l.047.078a6.933 6.933 0 0 0-.636.414l-.047-.078c.149-.119.136-.163.052-.303l-.426-.718.205 1.238-.087.057-1.001-.752.388.654c.118.197.193.259.34.171l.048.08a7.97 7.97 0 0 0-.228.135c-.059.04-.129.088-.209.149l-.048-.081c.141-.097.117-.191-.002-.39l-.486-.819c-.06-.021-.122-.005-.206.045l-.044-.072c.06-.031.121-.072.188-.116z"/><path d="M36.639 29.384a2.937 2.937 0 0 1-.11.368c-.09.247-.221.469-.386.669-.09.108-.191.207-.3.293a.85.85 0 0 1-.121.081c-.618-.612-1.328-1.137-2.015-1.644l-.294-.219c.076-.065.151-.153.218-.248.069-.096.143-.185.202-.289.107-.188.184-.41.255-.616a2.87 2.87 0 0 0 .162-.733c.637.601 1.381 1.107 2.057 1.567l.189.128c.079.054.171.131.189.234a.26.26 0 0 1 .005.039c.009.116-.027.265-.051.37zm-4.031 3.649c-.15-.155-.282-.376-.475-.475a.846.846 0 0 0-.642-.041c-.472.146-.757.575-1.121.889-.119.102-.25.186-.384.263-.157.091-.351.195-.537.175a.183.183 0 0 1-.138-.076c-.303-.409.02-1.473.174-1.984.51-1.68 1.66-3.955 3.36-5.303.151-.12.43-.173.612-.139.262.048.381.276.382.54 0 .199-.035.422-.092.612l-.52-.449c-.327.312-.664.699-.713 1.184-.062.593.401.856.795 1.155l.161.121c.213.157.429.317.643.48-.821.723-1.37 1.841-1.505 3.048zm1.208 1.629l.565.489c.219.21.365.296.393.455.092.513-.308 1.033-.606 1.346-1.097 1.154-2.51 2.38-3.84 3.269-2.077 1.388-4.337 2.366-6.633 3.04-1.103.325-2.958.613-2.958.613a17.96 17.96 0 0 1-1.038.068c-.346.013-.693.015-1.04.014h-.108c-.316 0-.63 0-.945-.009-.353-.01-.707-.021-1.058-.06-2.172-.241-3.209-.623-3.209-.623-2.312-.612-4.662-1.62-6.709-3.056-1.31-.919-2.485-2.102-3.582-3.256-.298-.313-.649-.803-.571-1.319.027-.178.139-.39.358-.599l.454-.372c.488-.417.99-.823 1.446-1.29-.035.036.237.382.263.414.366.452.745.892 1.13 1.325a23.626 23.626 0 0 0 1.879 1.893c.72.651 1.526 1.241 2.382 1.68 1.643.842 3.5 1.427 5.368 1.691.374.053.75.097 1.126.13.381.033.762.054 1.144.061.431.007.865.009 1.297-.007a18.885 18.885 0 0 0 2.023-.184 17.19 17.19 0 0 0 5.369-1.691c.855-.439 1.661-1.029 2.381-1.68.752-.678 1.492-1.382 2.158-2.152.183-.211.362-.425.539-.642.114-.139.238-.269.351-.408.025-.032.298-.378.262-.414.457.467.92.857 1.409 1.274zM2.991 29.985c.214-.163.43-.323.643-.48l.161-.121c.394-.299.857-.562.795-1.155-.05-.485-.386-.872-.713-1.184l-.52.449a2.262 2.262 0 0 1-.092-.612c.001-.264.12-.492.382-.54.182-.034.461.019.612.139 1.699 1.348 2.85 3.623 3.359 5.303.155.511.477 1.575.175 1.984a.183.183 0 0 1-.138.076c-.186.02-.38-.084-.537-.175a2.487 2.487 0 0 1-.384-.263c-.364-.314-.649-.743-1.121-.889a.849.849 0 0 0-.643.041c-.192.099-.324.32-.474.475-.135-1.207-.684-2.325-1.505-3.048zm-1.609.81a.797.797 0 0 1-.121-.081 2.026 2.026 0 0 1-.3-.293 2.265 2.265 0 0 1-.386-.669 3.119 3.119 0 0 1-.111-.368c-.023-.105-.059-.254-.05-.37.001-.013.002-.026.005-.039.018-.103.11-.18.189-.234l.189-.128c.676-.46 1.42-.966 2.057-1.567.017.251.08.497.162.733.071.206.148.428.255.616.059.104.133.193.202.289.067.095.142.183.217.248l-.293.219c-.687.507-1.397 1.032-2.015 1.644zm35.699-1.997c-.054-.201-.199-.356-.361-.468l-.189-.128c-.409-.279-.819-.558-1.214-.858a9.135 9.135 0 0 1-1.099-.974c-.185-.195-.332-.385-.591-.473-.3-.102-.771-.014-1.031.191-1.508 1.197-2.818 3.259-3.503 5.517-.263.867-.51 1.837-.107 2.38.092.124.22.221.328.329l.373.379c.067.069.136.136.201.207l.302.335c-1.009 1.178-2.201 2.324-3.656 3.057a17.082 17.082 0 0 1-5.242 1.652c-.554.078-1.251.129-1.819.152l-.945.012-.897-.012a19.852 19.852 0 0 1-1.819-.152 17.097 17.097 0 0 1-5.243-1.652c-1.454-.733-2.647-1.862-3.671-3.054l.318-.338c.066-.071.134-.138.201-.207l.373-.379c.108-.108.235-.205.328-.329.402-.543.156-1.513-.107-2.38-.686-2.258-1.995-4.32-3.504-5.517-.259-.205-.73-.293-1.03-.191-.259.088-.406.278-.591.473-.339.358-.71.677-1.099.974-.395.3-.805.579-1.214.858l-.189.128c-.163.112-.307.267-.361.468-.058.217.007.474.055.687.133.6.466 1.154.936 1.526.104.082.228.168.36.185.128.016.218-.059.305-.147.094-.095.193-.186.292-.276.219-.198.447-.387.678-.571.86.712 1.411 1.901 1.464 3.163-.351.332-.721.649-1.084.959l-.459.375c-.212.188-.464.506-.504.91-.063.64.347 1.285.688 1.643 1.12 1.176 2.299 2.412 3.655 3.318 2.114 1.412 4.486 2.444 6.829 3.11 1.745.497 3.499.733 5.313.705h.002c1.814.028 3.552-.254 5.247-.702 2.354-.623 4.687-1.728 6.801-3.14 1.356-.906 2.741-2.132 3.861-3.308.341-.357.751-.988.688-1.629-.04-.403-.292-.601-.504-.789l-.571-.493c-.363-.31-.733-.627-1.084-.959.053-1.262.604-2.451 1.464-3.163.231.184.459.373.678.571.1.09.198.181.292.276.087.088.177.163.305.147.132-.017.256-.103.36-.185.47-.372.803-.926.936-1.526.048-.213.113-.47.055-.687z"/><path d="M31.561 6.26c.246.065.353.375.35.632-.004.344-.099.706-.006 1.147a.641.641 0 0 0 .072.212l-.928.002c-.03-.03.158-1.445.158-1.445s.053-.235-.001-.334c-.061-.115-.187-.081-.187-.081s.264-.208.542-.133zm-1.393 1.134c.313-.327.572-.63.603-.672.17-.231.271-.221.305-.192.039.033.008.192.008.192l-.12.921s-.177.244-.514.361a.927.927 0 0 1-.625-.014c-.156-.075-.256-.329-.256-.329s.215.134.599-.267zm-.43.199a.222.222 0 0 1-.222-.066c-.03-.032-.056-.197-.067-.291-.009-.086.004-.283.004-.283s.321.05.461.078c.14.028.392.098.392.098s-.341.419-.568.464zm-4.019-1.2s-.126-.034-.187.081c-.054.099 0 .334 0 .334s.187 1.415.157 1.445l-.927-.002s.038-.056.071-.212c.093-.441-.002-.803-.006-1.147-.003-.257.104-.567.351-.632.278-.075.541.133.541.133zm1.45 1.268s-.1.254-.255.329a.93.93 0 0 1-.626.014c-.337-.117-.514-.361-.514-.361l-.119-.921s-.031-.159.007-.192c.035-.029.135-.039.305.192.031.042.29.345.603.672.384.401.599.267.599.267zm-.737-.532s.252-.07.393-.098c.14-.028.46-.078.46-.078s.013.197.004.283c-.01.094-.037.259-.067.291a.22.22 0 0 1-.221.066c-.228-.045-.569-.464-.569-.464zm3.886-.115s-.954-.273-1.991-.273c-1.037 0-1.912.263-1.912.263s-.006-.263-.054-.514c-.039-.205-.095-.337-.095-.337s1.022-.149 2.059-.149c1.037 0 2.139.16 2.139.16s-.057.132-.096.337c-.048.251-.05.513-.05.513zm-1.539-1.35c-.019-.009-.03-.042-.03-.088V3.029c.927.754 1.397 1.833 1.445 1.949-.009.04-.084.164-.121.225l-.07.124-.018.041c-.039.093-.098.234-.183.247-.028.004-.058-.04-.101-.107-.06-.096-.142-.226-.304-.212-.169.014-.302.139-.42.25l-.078.071c-.053.046-.099.056-.12.047zm-.169-2.779v2.691c0 .142.069.195.11.214.079.036.179.01.269-.067l.083-.076c.101-.095.216-.202.337-.213.072-.006.114.052.175.148.053.084.119.188.239.17.162-.024.239-.208.291-.33l.016-.04.062-.107c.124-.205.159-.278.136-.335-.002-.007-.517-1.291-1.607-2.111l-.111-.084v.14zm-.62.144v2.547c0 .046-.011.079-.029.088-.021.009-.068-.001-.12-.047l-.079-.071c-.117-.111-.251-.236-.419-.25-.163-.014-.245.116-.305.212-.043.067-.073.111-.101.107-.085-.013-.144-.154-.183-.247l-.017-.041-.071-.124a1.469 1.469 0 0 1-.121-.225c.05-.12.519-1.197 1.445-1.949zm.028-.2c-1.09.82-1.605 2.104-1.609 2.116-.021.052.014.125.138.33l.062.107.017.04c.051.122.128.306.291.33.12.018.185-.086.238-.17.061-.096.103-.154.176-.148.12.011.235.118.336.213l.083.076c.09.077.191.103.269.067.041-.019.11-.072.11-.214V2.745l-.111.084zm.332-1.1a.157.157 0 0 0-.157.156.156.156 0 1 0 .157-.156zm.002 4.145c-1.016 0-2.13.159-2.13.159-.046-.079-.157-.331-.261-.414-.141-.112-.398-.129-.381-.313.015-.161.31-.15.429-.027a.998.998 0 0 0 .123-.07c0 .004-.208-.392-.208-.392a7.556 7.556 0 0 1 2.163-2.642c-.141-.026-.328-.071-.328-.287 0-.18.137-.277.313-.277.004 0-.002-.068-.002-.068 0-.181.105-.318.281-.318h-.001c.176 0 .28.137.28.318 0 0-.005.068-.001.068.176 0 .312.097.312.277 0 .216-.186.261-.328.287a7.546 7.546 0 0 1 2.164 2.642s-.209.396-.209.392c0 .003.121.073.123.07.12-.123.415-.134.429.027.018.184-.239.201-.38.313-.104.083-.215.335-.261.414 0 0-1.114-.159-2.131-.159h.004zm-16.356.386c.246.065.353.375.35.632-.003.344-.098.706-.005 1.147a.661.661 0 0 0 .071.212l-.927.002c-.03-.03.158-1.445.158-1.445s.052-.235-.001-.334c-.062-.115-.187-.081-.187-.081s.263-.208.541-.133zm-1.392 1.134c.313-.327.572-.63.603-.672.169-.231.27-.221.305-.192.038.033.007.192.007.192l-.119.921s-.177.244-.514.361a.93.93 0 0 1-.626-.014c-.155-.075-.255-.329-.255-.329s.215.134.599-.267zm-.431.199a.22.22 0 0 1-.221-.066c-.031-.032-.057-.197-.067-.291-.009-.086.004-.283.004-.283s.32.05.46.078c.141.028.393.098.393.098s-.341.419-.569.464zm-4.018-1.2s-.126-.034-.188.081c-.053.099 0 .334 0 .334s.188 1.415.158 1.445l-.928-.002s.039-.056.072-.212c.093-.441-.002-.803-.006-1.147-.003-.257.104-.567.35-.632.278-.075.542.133.542.133zm1.45 1.268s-.1.254-.256.329a.927.927 0 0 1-.625.014c-.337-.117-.514-.361-.514-.361l-.12-.921s-.031-.159.008-.192c.034-.029.135-.039.305.192.031.042.29.345.603.672.384.401.599.267.599.267zm-.738-.532s.253-.07.393-.098c.141-.028.461-.078.461-.078s.013.197.004.283c-.011.094-.037.259-.067.291a.222.222 0 0 1-.222.066c-.227-.045-.569-.464-.569-.464zm3.886-.115s-.954-.273-1.991-.273c-1.037 0-1.912.263-1.912.263s-.006-.263-.053-.514c-.039-.205-.095-.337-.095-.337s1.022-.149 2.059-.149c1.037 0 2.139.16 2.139.16s-.058.132-.097.337c-.047.251-.05.513-.05.513zm-1.539-1.35c-.018-.009-.029-.042-.029-.088V3.029c.927.754 1.396 1.833 1.445 1.949-.009.04-.084.164-.121.225l-.07.124-.018.041c-.039.093-.098.234-.183.247-.028.004-.059-.04-.101-.107-.06-.096-.142-.226-.305-.212-.168.014-.302.139-.42.25l-.078.071c-.053.046-.099.056-.12.047zm-.168-2.779v2.691c0 .142.069.195.11.214.078.036.179.01.269-.067l.083-.076c.101-.095.216-.202.336-.213.073-.006.115.052.175.148.053.084.119.188.239.17.163-.024.24-.208.291-.33l.017-.04.062-.107c.124-.205.159-.278.136-.335-.002-.007-.517-1.291-1.607-2.111l-.111-.084v.14zm-.62.144v2.547c0 .046-.011.079-.029.088-.022.009-.068-.001-.121-.047l-.078-.071c-.118-.111-.251-.236-.42-.25-.162-.014-.244.116-.304.212-.043.067-.073.111-.101.107-.086-.013-.144-.154-.184-.247l-.017-.041-.07-.124a1.469 1.469 0 0 1-.121-.225c.05-.12.519-1.197 1.445-1.949zm.027-.2c-1.089.82-1.605 2.104-1.608 2.116-.022.052.014.125.138.33l.062.107.016.04c.052.122.129.306.292.33.119.018.185-.086.238-.17.06-.096.102-.154.175-.148.121.011.236.118.337.213l.083.076c.09.077.19.103.268.067.042-.019.111-.072.111-.214V2.745l-.112.084zm.333-1.1a.156.156 0 1 0-.001.313.156.156 0 0 0 .001-.313zm.002 4.145c-1.016 0-2.13.159-2.13.159-.047-.079-.157-.331-.262-.414-.14-.112-.397-.129-.38-.313.015-.161.31-.15.429-.027a.998.998 0 0 0 .123-.07c0 .004-.209-.392-.209-.392a7.546 7.546 0 0 1 2.164-2.642c-.142-.026-.328-.071-.328-.287 0-.18.137-.277.312-.277.005 0-.001-.068-.001-.068 0-.181.105-.318.28-.318.176 0 .28.137.28.318 0 0-.006.068-.001.068.175 0 .312.097.312.277 0 .216-.186.261-.328.287a7.546 7.546 0 0 1 2.164 2.642s-.209.396-.209.392c0 .003.121.073.123.07.119-.123.414-.134.429.027.017.184-.24.201-.38.313-.105.083-.215.335-.262.414 0 0-1.114-.159-2.13-.159h.004zm5.068 19.451c-.055.773-.957.712-1.294 1.263.337-.313.859-.331 1.202-.705.123-.147.178-.38.092-.558zm-.208-.282c-.105.227-.344.344-.559.368.025.012.043.012.062.03a.43.43 0 0 0 .423-.116c.061-.08.116-.19.074-.282zm-.497-.982c-.129-.049-.313-.049-.417.055h.147l.122.148c.117.073.227-.074.35-.031-.031-.086-.123-.147-.202-.172zm.644-.147a.578.578 0 0 1 .619-.03c-.141.085-.122.257-.159.398.073.135.122.386.306.368-.006.086-.122.154-.208.19 0 .166-.018.35.135.442-.025.129-.196.043-.264.129-.012.214.049.417.233.515.049.037.104 0 .148-.013.042.092-.068.197-.148.252-.092.049-.202.056-.306.074-.006.079.055.178.073.264.092.38-.006.766-.313.999.031-.178-.018-.374-.171-.484l-.062.061c.068.245-.043.608.264.718-.276.147-.632.055-.883-.086-.111.031-.191.117-.307.129-.258-.509-1.024.068-1.178-.601-.024-.086-.073-.172-.073-.264-.135-.025-.24.141-.325.233-.031.043-.031.153-.117.092l-.116-.147c0 .147.098.295.22.411.104-.136.055-.368.233-.442.111.27.319.583.62.662.227.037.589-.141.644.178.184.043.3-.202.491-.134.092.3.202.594.22.926.46.3.467.92 1.031 1.073.356.11.669-.098.896-.368a.614.614 0 0 0 .073-.527c-.196-.473-.957-.755-.693-1.387.055-.257.331-.355.515-.515.46-.282 1-.521 1.295-1.043.036-.117.012-.245-.086-.325-.16-.141-.356-.159-.559-.104-.055.018-.098.073-.147.123-.018.092.08.159.147.189.092 0 .178 0 .252-.042 0 .098 0 .202-.061.276a.587.587 0 0 1-.454.135c-.068.147-.123.331-.295.411-.227.178-.68.031-.724.429-.128-.092-.061-.288-.061-.417.16-.245.478-.429.387-.779-.08-.068-.203-.092-.24-.202 0-.172-.006-.344.123-.461.405.43.834-.116 1.306-.042.301-.013.589.042.767.294.154.313-.006.644-.208.883-.43.442-.951.669-1.423 1-.068.073-.147.166-.105.264a.576.576 0 0 1 .307-.221.597.597 0 0 1 .282.05c.043.11-.092.03-.116.085-.086.074-.221.154-.209.282.074.013.141-.073.221-.092.386-.19.638.552.957.061v-.018h.03c.049.166-.018.319-.104.442-.098.086-.196.178-.307.221.019.073.123.049.172.03.019-.024.062-.006.074-.043.012.178-.147.282-.276.38l-.252.062a.738.738 0 0 1-.043.527c.16.031.332.154.368.326.056.282-.085.521-.165.766 0 .068.049.148.122.16.013 0 .037 0 .043.018 0 .049-.073.037-.104.056-.104.006-.215.006-.294-.056-.154-.221.067-.552-.19-.705-.534.006-1.141.368-1.65.024-.062.013-.123-.147-.16-.024.025.184.098.405.307.466.025.178-.436.276-.209.46.184.012.411 0 .473.202-.019.037-.092-.012-.117.05.098.116.233.214.178.392-.025-.037-.068-.098-.117-.098-.055.013-.128.019-.147.086-.024.159.111.282.043.441a.157.157 0 0 0-.147-.061c-.209.123.147.215.03.368-.055.049-.11.116-.092.178.044.019.068.062.117.043 0 .055-.055.08-.086.122-.147.074-.245-.153-.38-.049l-.074-.073c-.073.086-.104.196-.208.251-.105-.049-.215.019-.252.117v.031c-.049.006-.037-.068-.055-.105.031-.153.111-.313.245-.392-.018-.019-.018-.049-.043-.062-.079.019-.141.086-.233.074-.061-.031-.055-.123-.135-.104-.055.049-.085.11-.128.166a.252.252 0 0 1 .043-.252c.165-.067.257-.387.453-.166.092.056.185-.018.209-.098.104-.252.012-.527-.147-.724-.117-.27-.221.068-.356.074-.141.03-.313.067-.423-.031.135-.067.27-.208.276-.368-.012-.147-.221-.177-.252-.337-.104-.331.098-.601.092-.926-.128-.062-.319.067-.441-.062l-.19-.03c-.037.215.447.3.19.533-.374-.043-.724.196-.914.528l-.086-.16a.828.828 0 0 1-.65.086.308.308 0 0 0 .147-.19c.006-.061-.061-.104-.104-.135a.499.499 0 0 0-.35.313.357.357 0 0 1-.092.294c-.141.062-.307-.08-.325.147l.018.043c-.049.006-.147.006-.165-.073-.08-.19.129-.307.073-.485.068-.092.258-.128.197-.263-.166-.172-.289.165-.491.024a.162.162 0 0 1-.098-.147c.018-.049-.037-.067-.062-.098-.067.006-.122.055-.177.098 0-.043 0-.154.061-.203.098-.11.27-.079.337-.22.061-.019.129-.05.19-.019.148.037.099.264.283.221.067-.043.092-.122.055-.19-.062-.178-.423-.111-.295-.38.166-.099-.012-.203-.085-.264-.013 0-.037 0-.043-.018.085-.05.214-.031.306-.013.117.233.454.068.546.338.025.134.037.3-.073.398.012.037.024.092.073.104.344-.024.705 0 1-.134-.295-.234-.442-.602-.35-.97a.463.463 0 0 1 .203-.239c.202-.055.38.019.503.19l.515-.012.031-.03c-.301-.332-.712-.393-1.006-.749-.111.129-.154.344-.074.497-.166-.006-.301-.08-.442-.16-.092.111-.196.24-.337.264l-.147-.012c0-.055.08-.153-.012-.209h-.031c-.196.332-.534.356-.871.313.012-.11.233-.214.092-.294-.184.08-.331.258-.577.19.025-.098.184-.202.019-.264-.111.111-.215.264-.368.319h-.24c-.024-.055.209-.116.062-.202-.055-.111.141-.233-.062-.252-.202.043-.171.528-.472.307-.055-.172-.245-.258-.337-.423.043-.037.11 0 .147-.031 0-.307.497.068.337-.263-.098-.154-.337 0-.423-.166l.012-.245c-.092-.093-.19-.16-.325-.148.013-.073.092-.104.148-.135.282-.122.41.246.693.116.239.081.012.406.282.461a.151.151 0 0 0 .129-.049c-.019-.203-.497-.387-.129-.589-.025-.104-.117-.196-.209-.264.074-.067.196-.049.282-.031.16.056.123.283.307.313a.338.338 0 0 1 .092.35.279.279 0 0 0-.061.147c.08.209.276.08.411.092.257-.062.503-.166.724-.313.122.037.263.123.398.05-.233-.111-.533-.301-.546-.59.197.068.417.068.589-.061.325-.264.454-.785.914-.81.503-.049 1.166.221 1.454-.306-.074-.012-.166.037-.252.055-.171 0-.429-.074-.527.116-.135-.049-.111-.214-.135-.337.202-.104.472-.031.681-.116-.509-.307-1.172-.307-1.712-.577a.382.382 0 0 1-.128-.307c0-.159.092-.306.22-.38l.16-.03c-.012.085-.172.19-.074.306.35.331.871.245 1.239.534l.424.368c.085-.092.085-.239.061-.356-.141-.239-.558.055-.662-.252-.044-.116-.025-.276-.135-.349.006-.037-.007-.123.018-.166h.644c.061-.03.012-.104.049-.147.282-.043.564.153.81 0v-.043c.116-.018.184.086.276.135zm-4.196-.018c.037.055.062.128.031.19-.049.11-.282.154-.209.313.037.018.055.079.105.055.11-.061.067-.19.116-.276.104-.043.227.092.282-.062.049-.086-.018-.165-.061-.232.147.024.282.128.313.275.036.074-.068.092-.074.148-.024.104.08.288-.104.269-.117.019-.27-.006-.307.148-.055.65.712.785 1.055 1.202-.073.239-.251.503-.496.607a1.126 1.126 0 0 1-.485-.073c-.031.036-.013.098-.019.147-.239-.055-.502-.289-.558-.534.074.013.197.049.252-.024-.025-.074-.148-.037-.209-.093a.752.752 0 0 1-.294-.251c.061 0 .208.08.282-.012-.098-.147-.338-.117-.386-.325.073 0 .159.08.208-.013.012-.098-.104-.135-.16-.177-.073.049-.147.092-.251.073-.074-.049-.141-.147-.239-.086-.074.018-.068.098-.098.148a.336.336 0 0 1 0-.356c.245.012.036-.374.306-.251.074.036.129.116.221.103.098-.049.061-.134.043-.208l-.104-.086c-.043.117-.196.092-.295.074-.226-.099-.012-.497-.349-.473.012-.067.086-.104.147-.128.111-.031.221.116.307-.019.129-.018.233.025.294.117-.049.073.025.129.043.196.055.068.141.111.221.074.067-.068.074-.129.049-.209-.098-.092-.221-.196-.147-.337.018-.092.135-.006.172-.074.006-.092-.056-.153-.117-.221.301-.055.251.344.515.381zm16.8 1.398c-.085.767-.975.681-1.312 1.239.356-.331.841-.325 1.19-.663a.607.607 0 0 0 .122-.576zm-.22-.276a.74.74 0 0 1-.564.35c.024.006.049.012.061.03.147.037.3.007.411-.085.055-.093.147-.185.092-.295zm-.546-.988c-.123-.012-.295-.055-.386.056.086.03.208-.007.22.122.129.154.258-.049.417 0-.055-.098-.159-.147-.251-.178zm.853-.19c.159-.018.349-.043.472.074-.153.067-.129.239-.178.368.086.129.104.38.325.368.031.092-.08.098-.116.147a.109.109 0 0 0-.092.043c0 .166-.019.35.135.454-.056.104-.172.037-.252.074-.018.196.006.435.209.534l.171.011c.019.112-.086.16-.159.222-.104.018-.19.086-.307.061.031.184.111.392.098.613a.774.774 0 0 1-.349.619c.012-.165 0-.373-.178-.471l-.061.073c.091.233-.019.583.269.693-.135.129-.405.074-.576.043l-.325-.128-.264.128c-.221-.509-.908.049-1.116-.484-.068-.123-.141-.24-.148-.381-.122-.018-.233.123-.313.221-.036.031-.03.172-.116.105-.055-.037-.073-.105-.117-.135-.006.141.105.288.221.38.105-.129.056-.362.233-.423.086.269.331.607.632.662.203.006.497-.098.62.117 0 .03.006.055.03.073.172-.006.27-.227.454-.147.092.288.184.57.209.883.435.307.491.932 1.043 1.074.368.091.699-.111.932-.399a.591.591 0 0 0 .073-.423c-.171-.497-.993-.761-.723-1.399.049-.245.319-.331.484-.472.466-.264.988-.466 1.344-.945a.318.318 0 0 0-.031-.294.58.58 0 0 0-.589-.191c-.061.031-.129.055-.178.117-.006.08.055.141.117.178.086.019.208.037.282-.013.043.086-.019.173-.043.252a.627.627 0 0 1-.491.129c-.055.135-.11.301-.263.368-.215.203-.694 0-.737.399-.055.006-.055-.061-.085-.086-.166-.417.398-.527.398-.871l.013-.178c-.086-.073-.209-.104-.252-.221 0-.159-.018-.356.135-.423.368.392.816-.068 1.263 0 .356.006.755.11.884.466.055.681-.712 1.025-1.178 1.301-.227.165-.595.208-.662.539l.03.031a.527.527 0 0 1 .307-.221c.104 0 .209 0 .282.061.025.074-.086.032-.116.074a.424.424 0 0 0-.221.264c.153-.025.325-.135.515-.074.197.08.405.325.62.148.037-.031.042-.068.073-.105.049.006.019.074.043.105.012.245-.214.404-.399.515-.012 0-.036-.006-.042.012.067.055.184.031.251-.012.018.067-.031.159-.092.221a.68.68 0 0 1-.423.19c.061.153.018.374-.074.515.11.025.227.092.276.208.147.234-.202.454 0 .675-.018.043-.092.062-.129.031-.227-.122-.079-.583-.441-.454-.516.19-1.209.46-1.712.055-.055.092.013.203.031.295.049.11.172.202.264.239-.092.165-.288.227-.442.319.104.055.227.074.337.104-.061.043-.134.061-.19.135.062.215.442.178.399.472-.043 0-.086-.067-.116 0 .03.129.128.282.03.411.012-.03-.086-.129-.147-.135-.221.08-.067.362-.196.504-.019-.056-.098-.117-.16-.093-.16.099.055.184-.012.313-.055.074-.221.105-.166.221l.074.055c-.049.049-.141.104-.221.061-.104-.043-.073-.214-.221-.146-.018-.031-.012-.081-.055-.105-.104.068-.184.221-.325.147-.037-.085-.11-.018-.147 0l-.062.074c-.067-.037 0-.116 0-.178.105-.068.178-.215.313-.221.019-.012.019-.037.025-.055-.068-.08-.338.049-.295-.166-.079-.079-.153.049-.233.074-.018-.061.025-.135.074-.191.11-.048.233-.067.325-.159.184-.061.159.203.325.19.221-.184.301-.49.221-.779-.031-.055-.049-.116-.092-.165-.153.147-.35.239-.57.177-.019-.018-.05-.018-.062-.042a.477.477 0 0 0 .282-.442c-.171-.068-.257-.245-.282-.411-.031-.288.178-.515.104-.779-.227.025-.478.098-.723.129.049.19.282.147.386.282.037.239-.239.147-.343.264a1.278 1.278 0 0 0-.528.693c-.116-.313-.258.079-.399.086a.75.75 0 0 1-.349.104.502.502 0 0 0 .086-.251c-.031-.068-.117-.068-.16-.055-.215.153-.288.404-.251.662-.062.129-.27.037-.313.19l-.012.16c-.08.018-.16-.013-.191-.087.092-.22-.085-.496.178-.649.019-.056-.03-.087-.061-.117-.184-.049-.172.215-.337.209-.203.098-.209-.179-.338-.148l-.135.148c-.049-.111.019-.209.062-.295.232-.031.19-.441.484-.325.086.018.141.178.252.104.036-.055.116-.129.043-.196-.098-.172-.54.012-.368-.337l.03-.056c-.067-.067-.135-.129-.239-.104.08-.092.209-.153.337-.104.129.122.313-.061.473.043a.285.285 0 0 1 .147.263c.043.111-.104.221.031.283a3.33 3.33 0 0 0 .999-.454c-.276-.105-.57-.387-.588-.712 0-.123-.007-.245.073-.337.11-.129.276-.178.442-.129.116.153.294.018.429 0 .209-.086.423-.147.62-.27-.289-.319-.681-.387-.957-.718-.117.093-.141.264-.104.411l.03.062c-.221.135-.46-.423-.589.024a.305.305 0 0 1-.325.074c-.006-.067.074-.153-.018-.202h-.025c-.141.128-.257.355-.472.325-.129-.013-.264.018-.368-.031.043-.086.178-.147.129-.252-.104-.073-.178.105-.276.135-.092.031-.197.062-.295.025.013-.08.178-.19.013-.246-.098.013-.092.123-.16.172-.116.093-.227.19-.398.148l-.031-.025c.055-.055.178-.123.061-.209-.03-.086.123-.183-.03-.22-.246.012-.123.484-.442.306-.086-.073-.178-.208-.295-.086a.29.29 0 0 0-.085.179c-.086-.099-.086-.277-.062-.412.037-.196.307-.036.325-.251l.252-.019c.049-.073-.031-.128-.074-.171-.123-.049-.319.043-.356-.135.056-.141-.024-.301-.159-.337-.055.011-.086-.031-.135-.019.067-.147.245-.141.38-.116.123.245.423-.062.516.208.012.147.024.27.177.338a.11.11 0 0 0 .105-.044c-.013-.226-.467-.367-.135-.588a.54.54 0 0 0-.203-.252c.068-.055.178-.049.264-.031.159.068.153.301.337.338.05.085.105.19.062.294-.019.062-.098.111-.043.178.129.184.38.037.558.019.27 0 .454-.442.736-.197.049-.006.117.031.147-.024-.214-.104-.521-.301-.515-.589.147.098.387.067.528-.031.337-.245.441-.773.901-.828.503-.055 1.172.227 1.472-.294-.061-.019-.128.037-.196.049-.209.055-.472-.129-.589.116-.135-.043-.098-.221-.147-.325.184-.153.491-.012.693-.116-.515-.331-1.202-.307-1.748-.589-.098-.117-.153-.264-.104-.411a.391.391 0 0 1 .202-.251l.166-.032c-.037.099-.166.197-.074.307.38.313.914.246 1.294.547.141.098.264.226.399.337.104-.08.049-.252.043-.368-.172-.178-.515.031-.65-.203-.068-.11-.031-.264-.147-.356v-.177c.214-.019.46-.031.662.018.055-.031.018-.098.031-.147.282-.025.515.104.779.055.018-.025.091-.049.048-.086.191-.037.277.264.455.061zm-4.447.012c.098.05.098.166.073.252-.067.08-.208.129-.19.252.031.03.055.104.117.086.159-.049-.013-.27.147-.295.092.006.202.068.239-.061.025-.074-.037-.153-.074-.221.142.049.313.123.319.294.019.074-.055.074-.073.135.03.062.012.135.018.209-.129.08-.337.006-.399.172-.073.674.743.76 1.074 1.195-.068.24-.239.516-.497.602a.94.94 0 0 1-.442-.074c-.055.031-.018.098-.03.147-.239-.067-.473-.27-.546-.515.08.031.19.019.251-.043-.135-.042-.276-.085-.386-.19l-.117-.116c.068-.031.19.085.264-.019-.074-.153-.337-.104-.368-.325.049.012.104.068.147.031.049-.037.037-.068.019-.117a.204.204 0 0 0-.178-.086c-.049.08-.147.08-.221.055-.061-.055-.153-.128-.233-.055l-.074.129A.357.357 0 0 1 20.83 25c.068-.123.215-.129.178-.294.166-.087.319.232.43.018-.019-.086-.056-.166-.135-.209-.068.098-.197.098-.295.074-.251-.068-.03-.473-.368-.442-.012-.068.074-.11.117-.135.135-.049.233.129.325-.024.11-.013.221-.007.282.098a.256.256 0 0 0 .074.208c.055.043.116.105.19.062.067-.049.092-.129.061-.197-.086-.092-.239-.184-.178-.349.043-.062.141 0 .178-.074 0-.092-.074-.147-.135-.208.27-.068.251.3.485.324zm5.876-11.408c-.013.834-1 .803-1.344 1.411.387-.356.914-.399 1.27-.81.092-.172.203-.423.074-.601zm-.221-.282a.788.788 0 0 1-.589.429.32.32 0 0 0 .203.043.516.516 0 0 0 .294-.159c.067-.092.141-.19.092-.313zm-.534-.969c-.159-.031-.337-.019-.454.104l.013.012c.018 0 .036.006.049-.012.11-.074.135.068.202.116.154.08.258-.079.387-.085a.417.417 0 0 0-.197-.135zm1.282-.338c-.165.086-.104.282-.159.424.086.141.11.417.349.368.013.092-.092.159-.159.196-.025-.013-.031.018-.043.024-.012.191-.006.387.159.491-.049.117-.196.074-.275.147.018.203.042.43.245.528.055.018.147.03.196-.012a.251.251 0 0 1-.092.22c-.104.117-.258.129-.398.16 0 .08.055.172.091.251.129.387.043.828-.263 1.104h-.031c.012-.202-.012-.392-.19-.503-.037-.012-.049.031-.074.043.098.252-.061.663.307.755.012.086-.098.073-.147.104a1.315 1.315 0 0 1-.841-.165c-.104.055-.196.141-.325.147-.208-.436-.754-.074-1.073-.307a1.209 1.209 0 0 1-.325-.558c-.16.049-.325.227-.393.38-.086-.031-.128-.104-.196-.159a.702.702 0 0 0 .221.392c.123-.122.11-.38.294-.441.092.3.368.582.681.65.227.018.564-.123.705.116v.062c.209.055.399-.344.577-.074.074.294.209.564.221.883.491.289.521.859 1.03 1.086a.885.885 0 0 0 .896.018c.239-.165.503-.411.429-.723-.141-.638-1.196-.871-.944-1.65.03-.215.221-.35.38-.497.491-.368 1.098-.595 1.429-1.178.025-.104.08-.239.019-.337a.563.563 0 0 0-.461-.295c-.134.037-.306.025-.38.172-.049.092.068.172.129.221.098-.006.209.024.282-.043a.429.429 0 0 1-.043.325.561.561 0 0 1-.46.147c-.092.062-.055.166-.086.252-.178.27-.478.349-.766.411-.056.055-.142.085-.178.159l-.013.135c-.135-.104-.116-.343-.073-.503.178-.239.454-.448.356-.809-.092-.062-.221-.099-.27-.203-.025-.172-.025-.405.104-.503.478.436.889-.245 1.429-.147.331 0 .669.067.822.398.123.467-.08.915-.466 1.221-.368.319-.773.521-1.153.81-.08.086-.141.178-.147.294l.03.031a.586.586 0 0 1 .295-.252c.116-.024.276-.024.355.062.019.067-.079.049-.116.073-.123.062-.227.184-.221.325.074.007.147-.085.233-.104.429-.239.767.626 1.092.031.055.073.073.215.043.319-.074.196-.252.349-.429.442.092.055.214.03.294-.025.037.19-.147.337-.294.423-.074.061-.27-.012-.252.117.215.208-.258.674.239.619.233.154.289.424.233.694-.006.19-.196.355-.073.545l.178.105c-.141.073-.35.042-.485-.031-.239-.209.055-.669-.313-.798-.687.043-1.49.393-2.085-.104-.031.215.079.417.276.546l.104.043c-.092.184-.313.245-.485.325.068.055.135.135.129.239-.03-.018-.061-.043-.098-.03l-.031.03c.099.129.24.264.16.454-.012-.073-.092-.104-.147-.135a.158.158 0 0 0-.178.093c.006.153.092.306.018.453a.202.202 0 0 0-.208-.086c-.184.129.165.209.043.368-.043.062-.203.086-.129.191.043.018.086.085.129.061 0 .055-.074.067-.117.098-.209.08-.258-.221-.472-.147-.006-.037-.043-.056-.074-.086-.104.08-.221.239-.38.178-.068-.08-.135-.019-.19.03-.019.025-.019.068-.062.074-.03-.055-.061-.129-.03-.196.122-.074.153-.258.313-.233.024-.019.03-.043.03-.074-.116-.116-.386.123-.429-.147-.098-.037-.172.061-.252.116-.024-.11.037-.196.117-.263.172.03.245-.221.417-.148.098.068.184.166.319.148a.427.427 0 0 0 .135-.473c-.135.043-.27-.012-.381-.055 0-.074.105-.037.148-.092a.308.308 0 0 0 .147-.19.978.978 0 0 1-.313-.809 4.412 4.412 0 0 1-.748-.086c-.061.245.509.306.22.539a1.157 1.157 0 0 0-1.073.491c-.104-.018-.037-.233-.178-.147-.202.073-.472.104-.681.024a.326.326 0 0 0 .179-.171c-.019-.068-.062-.099-.117-.135a.592.592 0 0 0-.411.263c-.006.117-.037.252-.147.295-.123.067-.313-.147-.356.092v.073c-.068-.018-.16-.018-.19-.104-.062-.19.16-.264.135-.442.08-.079.245-.073.245-.22-.037-.074-.116-.08-.172-.074-.092.123-.276.068-.398.055-.148-.037-.068-.368-.283-.202-.03.018-.067.018-.085.055-.019-.098.049-.184.128-.233.252.043.411-.35.651-.104.049.055.079.128.147.165.067.019.116-.024.159-.073.043-.295-.644-.252-.233-.577-.03-.086-.123-.147-.208-.178.116-.055.257-.018.368.019.128.208.472.049.564.319.074.165-.067.288-.092.429l.043.043c.399.03.81.018 1.165-.086-.288-.233-.484-.546-.398-.926.049-.111.128-.245.251-.282.215-.049.423.006.558.19.313.006.626.006.914-.055.099-.16.012-.356-.043-.503-.318-.448-.834-.491-1.196-.871-.116.104-.153.282-.116.441l.03.049c-.159.019-.331-.079-.484-.147-.16.141-.319.319-.546.246-.025-.056.086-.148-.012-.203-.135.055-.234.19-.356.264-.203.08-.405.031-.632.043-.043-.092.288-.184.086-.295-.19.098-.368.24-.62.191.006-.074.129-.099.105-.191-.141-.177-.197.129-.325.166-.129.068-.295.135-.442.074.055-.056.215-.129.092-.222-.025-.073.129-.122.012-.177-.092-.062-.178.031-.221.104-.043.073-.079.178-.178.202-.202.074-.263-.257-.453-.129-.074.031-.166.105-.178.191a.425.425 0 0 1-.043-.337c.043-.246.337-.068.399-.27.091-.111.417.116.306-.148-.11-.171-.619.074-.423-.318.006-.068-.104-.111-.166-.148a.68.68 0 0 0-.159-.018c.098-.123.276-.16.442-.117.165.209.674-.086.557.368.068.08.16.16.264.105.086-.055 0-.105-.012-.166-.073-.061-.196-.092-.208-.203-.056-.153.159-.116.147-.251l-.191-.178c.038-.073.228-.037.326-.031.079.172.27.228.368.387.104.184-.276.331.031.442a2.322 2.322 0 0 0 1.104-.356c.122.055.294.086.423.031-.221-.099-.565-.24-.558-.546.196.086.447.042.619-.074.374-.258.515-.84 1.012-.865.54-.086 1.233.123 1.534-.429-.08-.025-.154.061-.234.073-.202.056-.496-.073-.607.178-.116-.055-.116-.214-.129-.337.203-.147.497-.074.718-.178-.49-.38-1.288-.098-1.821-.411-.105-.104-.148-.245-.105-.386.049-.111.111-.239.233-.295.062.006.098-.049.166-.03-.037.091-.178.165-.104.282.362.319.938.129 1.324.411.16.092.295.226.454.313.08-.099.043-.258.031-.369-.215-.177-.718.135-.736-.312.012-.154-.147-.197-.086-.368.221-.068.485-.031.706-.105-.013-.08.006-.153.104-.147.264-.024.54.074.736-.086v-.043c.122-.036.202.049.294.105.166-.148.442-.227.644-.105zm-5.017.601c.08.043.086.135.055.209-.074.098-.276.147-.22.294.036.019.055.08.104.056.128-.062.055-.215.147-.295.116 0 .264.031.294-.116a.283.283 0 0 0-.074-.16c.068-.018.166.025.24.074.049.055.092.122.073.202-.196.086.08.344-.177.356-.123.018-.27.006-.325.147-.08.705.779.669 1.091 1.104-.104.227-.294.503-.546.589a.826.826 0 0 1-.503-.061c-.042.043-.049.104-.042.165-.234-.049-.497-.227-.577-.472a.3.3 0 0 0 .27-.043v-.018c-.203-.025-.393-.098-.515-.276.098.024.208.067.294-.019-.098-.135-.325-.079-.387-.264.056-.018.117.044.178 0l.043-.055c-.043-.086-.141-.159-.233-.104-.055.061-.129.061-.208.055a.2.2 0 0 0-.233-.055c-.056.018-.086.08-.105.129-.061-.043-.074-.154-.043-.233.031-.141.264-.123.221-.307.178-.123.331.209.454-.031-.012-.073-.025-.147-.104-.177-.098.055-.209.147-.338.085-.22-.055-.018-.441-.337-.38 0-.092.111-.123.178-.147.209.135.423-.227.589.043-.031.086.037.178.116.221.086.055.16-.019.221-.086.037-.209-.325-.239-.135-.46.068.012.141 0 .166-.074l-.117-.159c.264-.098.252.282.485.263zm-10.937.976c-.037.822-1.018.822-1.374 1.411.393-.393.975-.393 1.313-.853.086-.16.153-.387.061-.558zm-.239-.27a.812.812 0 0 1-.589.417l.019.012a.454.454 0 0 0 .484-.116c.068-.086.135-.209.086-.313zm-.515-.957c-.16-.012-.374-.049-.473.104h.031c.111-.055.166.025.221.104.141.086.282-.092.399-.073a.582.582 0 0 0-.178-.135zm1.269-.319c-.165.074-.11.264-.165.393.11.128.129.417.368.368a.275.275 0 0 1-.16.196c-.024 0-.043.024-.061.043.037.159-.025.368.166.454.012.079-.08.073-.123.104-.061-.006-.123-.006-.16.061.05.197.056.448.295.528a.264.264 0 0 0 .159-.031c.013.123-.061.221-.159.282a.824.824 0 0 1-.325.086c.073.258.184.558.116.871a1.016 1.016 0 0 1-.319.485c0-.178-.03-.423-.239-.503l-.043.061c.092.251-.03.644.325.736-.012.061-.092.074-.147.086a1.314 1.314 0 0 1-.871-.16c-.086.086-.202.105-.307.16-.276-.521-1.036.074-1.282-.527a.774.774 0 0 1-.116-.326c-.166.013-.344.197-.411.356-.098.006-.159-.104-.209-.165-.006.153.123.312.252.398.104-.128.067-.38.264-.423.116.276.356.558.662.632.252.018.675-.135.767.19.196.006.307-.245.515-.16.129.301.221.614.264.957.466.246.503.804.987 1.031.276.184.73.227 1.013.012.171-.123.361-.288.386-.503.03-.797-1.313-1.006-.926-1.895.3-.497.865-.669 1.294-1.018.252-.227.613-.479.528-.853-.074-.166-.246-.27-.411-.307-.185 0-.387.025-.473.203.037.073.086.147.166.178.092-.013.208.036.276-.043a.41.41 0 0 1-.043.325c-.141.092-.276.184-.472.147-.092.123-.049.3-.203.392-.239.295-.803.074-.84.546-.141-.098-.105-.312-.092-.472.184-.245.466-.46.368-.822-.098-.061-.246-.098-.276-.233 0-.178-.019-.35.104-.472.46.442.871-.203 1.38-.135.374-.031.755.061.914.411.117.454-.098.834-.429 1.135-.38.349-.816.552-1.221.852-.086.086-.153.197-.116.313a.652.652 0 0 1 .337-.251c.117.006.258-.019.325.073.018.08-.08.018-.104.062-.123.079-.233.171-.252.318.16-.055.35-.165.565-.098.208.056.361.307.613.221a.5.5 0 0 0 .178-.196.495.495 0 0 1-.055.503c-.098.116-.227.184-.325.263.086.062.202.025.276-.03.055.086-.025.178-.074.251-.123.154-.295.184-.466.221-.031.043.043.08.043.135 0 .16 0 .325-.062.454.117.037.246.055.338.147.3.252.128.718.031 1 .006.086.036.172.116.209.037.018.11.012.104.061a.535.535 0 0 1-.472-.031c-.258-.202.049-.668-.319-.797-.699.043-1.509.405-2.11-.104-.067.098.043.196.049.294.055.129.19.252.319.282 0 .147-.19.178-.294.264.012.043.03.092.073.104.221.062.522.025.62.282-.056-.018-.105-.012-.148.025.129.11.313.239.24.429a.215.215 0 0 0-.197-.116c-.061 0-.11.049-.128.104.006.159.165.276.085.454-.055-.049-.122-.092-.202-.074-.043.031-.086.086-.049.135.067.055.172.11.135.221-.025.074-.141.08-.135.172.055.049.098.122.178.092-.062.104-.19.141-.307.104-.098-.006-.159-.184-.264-.074-.061 0-.085-.073-.135-.091-.061.073-.104.159-.19.208-.098.049-.202-.043-.282.012-.037.043-.086.08-.086.135-.049.013-.061-.043-.073-.073-.025-.172.141-.307.251-.369.018-.024.068-.061.025-.091-.135-.074-.362.165-.454-.099-.086.019-.154.092-.221.16a.243.243 0 0 1 .043-.233c.184-.006.258-.313.46-.221.098.049.196.147.319.086.129-.141.129-.393.061-.558-.067-.154-.202-.288-.337-.399-.172.233-.466.288-.755.233-.03-.018-.073-.018-.098-.055.117-.049.246-.129.307-.252 0-.067.067-.147 0-.208-.159-.055-.307-.227-.307-.411l-.03-.031a3.384 3.384 0 0 1-.841-.073c-.042.239.485.288.233.533-.441-.037-.834.123-1.085.485-.055-.019-.074-.104-.105-.16a1.165 1.165 0 0 1-.766.043c.073-.036.178-.116.178-.208-.086-.16-.227-.068-.338-.031-.11.098-.264.203-.221.368-.055.141-.227.104-.337.092-.031-.043-.049.019-.074.012a.29.29 0 0 0-.073.166c-.092.025-.16-.043-.196-.104-.037-.166.159-.233.122-.399.074-.117.276-.074.264-.252-.055-.036-.117-.104-.19-.055-.129.092-.295.074-.43.013-.067-.049-.036-.135-.085-.191-.105-.024-.166.031-.24.074-.006-.037.007-.135.062-.178.116-.11.313-.03.411-.19.061-.049.165-.037.233-.018.141.055.153.276.325.208.049-.043.104-.098.061-.159-.073-.172-.423-.092-.325-.356.012-.055.104-.08.086-.147a.43.43 0 0 0-.202-.135c.092-.08.269-.031.38.018.11.184.374.055.503.221.086.073.086.202.055.307-.012.073-.129.128-.086.208l.062.043c.386-.006.797.031 1.147-.086-.276-.239-.503-.552-.387-.932a.46.46 0 0 1 .252-.264.514.514 0 0 1 .545.178c.313.031.632-.012.945-.043.147-.116.141-.337.117-.515-.24-.57-.89-.601-1.282-1.018a.432.432 0 0 0-.135.313l.049.19c-.184-.025-.338-.111-.503-.166-.154.147-.307.338-.546.239.018-.073.068-.128 0-.19-.172.049-.27.276-.454.295h-.558c.018-.105.153-.123.172-.222-.129-.146-.246.074-.381.099-.104.006-.214.055-.325.018.025-.067.129-.098.117-.177-.147-.197-.19.122-.319.147-.135.073-.307.141-.46.073.037-.061.147-.037.135-.135-.043-.025-.049-.067-.043-.116.018-.031.079-.049.055-.104-.049-.031-.117-.062-.178-.025-.141.104-.165.417-.423.276l-.19-.147c-.111.036-.252.091-.282.22-.086-.061-.086-.202-.062-.306.031-.276.356-.062.43-.295.104-.061.257.068.325-.061-.062-.282-.657.037-.46-.38.012-.098-.105-.098-.16-.148-.049-.024-.116-.012-.178-.018.099-.147.307-.141.473-.116.141.196.662-.092.546.355.067.08.159.141.251.117.037-.012.08-.068.043-.104-.074-.141-.325-.166-.239-.368.049-.049.141-.062.135-.148-.049-.079-.135-.128-.209-.178.086-.073.239-.036.344-.024.079.19.3.202.38.393.08.171-.27.355.043.429.392-.043.767-.141 1.092-.356.147.012.294.111.441.031-.221-.098-.57-.239-.558-.546.202.098.454.025.632-.086.356-.257.521-.816 1-.84.533-.098 1.257.135 1.545-.424-.067-.018-.135.056-.208.074-.209.055-.515-.086-.632.172-.135-.037-.098-.202-.147-.307.19-.178.521-.067.736-.208-.497-.35-1.27-.098-1.81-.381-.098-.043-.116-.153-.147-.233 0-.184.074-.343.233-.441l.178-.049c-.049.091-.141.177-.104.282.386.319.969.153 1.374.429l.411.295c.098-.105.061-.27.031-.399-.221-.117-.638.141-.712-.221.037-.166-.178-.227-.098-.411.221-.055.448-.08.687-.092.03-.049 0-.159.073-.159.289-.025.559.061.798-.074v-.061c.123-.031.209.049.294.104a.63.63 0 0 1 .65-.117v.031zm-5.035.601c.233.258-.46.343-.092.528.128-.062.061-.227.165-.295.117-.018.24.055.276-.098.031-.086-.043-.123-.073-.178.129.019.288.055.325.203.024.073-.031.104-.074.147-.018.086.061.3-.116.282-.123.018-.27.006-.326.147a.582.582 0 0 0 .283.577c.269.165.601.239.822.497-.098.227-.289.484-.528.588a1.044 1.044 0 0 1-.534-.042.179.179 0 0 0-.043.147c-.233-.062-.515-.209-.57-.473.098.056.19.007.276-.043-.043-.061-.135-.006-.19-.042-.135-.025-.233-.135-.338-.221.074-.025.215.061.295-.031-.092-.147-.35-.061-.386-.282.049.037.128.037.177.018.013-.03.043-.055.031-.092-.067-.037-.11-.116-.208-.086-.056.068-.141.08-.233.074a.213.213 0 0 0-.234-.061l-.104.135c-.061-.013-.073-.16-.043-.234.043-.147.258-.11.221-.294.172-.141.35.221.466-.049a.204.204 0 0 0-.086-.147c-.067-.049-.122.049-.159.073-.129.007-.282.019-.325-.116.006-.098 0-.203-.092-.252-.037-.024-.086-.006-.129-.012.012-.061.074-.116.129-.135.196.092.337-.104.546-.055.153.067.055.319.263.325.074 0 .129-.049.178-.104.025-.19-.362-.276-.116-.46a.137.137 0 0 0 .147-.056l-.117-.165c.289-.098.258.294.516.282zm11.756 11.458v10.998c.19.766 1.01 1.344 1.714 1.552-.288.35-.71.485-1.174.399-.367-.086-.691-.276-.997-.515.055.405.098.902-.061 1.294-.141.338-.373.675-.703.896h.001c-.33-.221-.563-.558-.703-.896-.159-.392-.117-.889-.062-1.294-.305.239-.629.429-.996.515-.465.086-.886-.049-1.174-.399.703-.208 1.523-.786 1.713-1.552V22.945h-8.91c-.766.189-1.344 1.01-1.553 1.712-.349-.287-.484-.709-.398-1.174.086-.366.276-.691.515-.996-.405.055-.902.098-1.294-.061-.338-.141-.675-.373-.896-.703v.001c.221-.33.558-.563.896-.703.392-.159.889-.117 1.294-.061-.239-.306-.429-.63-.515-.997-.086-.464.049-.886.398-1.174.209.704.787 1.524 1.553 1.713h8.91v-6.986c-.19-.767-1.01-1.344-1.713-1.553.287-.349.709-.484 1.174-.399.366.086.691.276.996.516-.055-.405-.098-.902.061-1.294.141-.338.373-.675.703-.896.33.221.562.558.703.896.159.392.116.889.061 1.294.305-.24.63-.43.996-.516.465-.085.887.05 1.174.399-.703.209-1.523.786-1.713 1.553v6.986h9.289c.767-.189 1.345-1.009 1.553-1.713.35.288.485.71.399 1.174-.086.367-.276.691-.515.997.404-.055.901-.098 1.294.061.337.14.674.373.895.703v-.001c-.221.33-.558.562-.895.703-.393.159-.89.116-1.294.061.239.306.429.63.515.997.086.465-.049.886-.399 1.174-.208-.703-.786-1.524-1.553-1.713h-9.289zM34.763 9.134H2.273V.414h32.49v8.72zM35.18 0H1.861v14.303c.154 3.494.757 6.495 1.844 9.174 2.491 5.93 6.983 11.26 12.017 14.261l.696.382c.65.361 1.322.734 2.019 1.011l.083.033.084-.033c.696-.277 1.368-.65 2.018-1.011l.687-.377c5.043-3.006 9.535-8.336 12.025-14.264 1.088-2.681 1.692-5.682 1.846-9.176V0z"/><path d="M18.881 5.102a.526.526 0 0 1-.886-.192.503.503 0 0 1 .19-.552l.002-.002a.544.544 0 0 1 .511-.055l.004.002c.113.05.216.146.261.246l.002.002.001.004a.453.453 0 0 1 .043.198.53.53 0 0 1-.128.349zm.387-.688a.7.7 0 0 0-.091-.145.777.777 0 0 0-.132-.136.955.955 0 0 0-.205-.128.883.883 0 0 0-.856.093h-.001a.811.811 0 0 0-.341.669c0 .075.01.151.03.226l.001.003a.74.74 0 0 0 .095.206.91.91 0 0 0 .183.204.83.83 0 0 0 .305.16.87.87 0 0 0 .872-.244l.002-.002a.86.86 0 0 0 .213-.568.782.782 0 0 0-.075-.338zm2.353 1.134l-.011.047-.041-.024a3.826 3.826 0 0 0-1.28-.459h-.002c-.36-.05-.675.008-.922.163a1.138 1.138 0 0 0-.308.296l-.001.001-.001.002a1.573 1.573 0 0 0-.239.875c0 .087.005.177.016.269a3.665 3.665 0 0 0 .32 1.081c.016.038.034.077.058.124l.02.041-.044.01a3.396 3.396 0 0 1-1.563-.011l-.046-.012.023-.041c.228-.404.488-.95.488-1.588l-.003-.123v-.002-.002c-.02-.238-.079-.47-.193-.627 0 0-.142-.206-.284-.294-.039-.028-.098-.06-.141-.084-.284-.164-.619-.208-1.007-.142a3.048 3.048 0 0 0-.924.335l-.001.001c-.091.05-.172.098-.25.147l-.042.027-.012-.049a3.38 3.38 0 0 1-.089-.779c0-.249.025-.491.075-.721l.01-.046.041.022c.396.203.928.442 1.532.495h.004c.354.023.631-.049.841-.22 0 0 .153-.109.271-.297.141-.207.212-.465.212-.77l-.001-.058a2.974 2.974 0 0 0-.23-.996c-.083-.2-.18-.401-.289-.596l-.023-.041.046-.012a3.386 3.386 0 0 1 1.656.014l.044.013-.022.04a5.053 5.053 0 0 0-.308.673L19 2.232a2.901 2.901 0 0 0-.186.918v.025c0 .298.069.548.205.747 0 0 .146.199.297.281.224.144.495.218.838.23h.005c.474 0 .93-.137 1.436-.432l.043-.025.01.049a3.499 3.499 0 0 1-.027 1.523zm.138-1.799l-.006.01c-.473.301-.975.534-1.572.534-.298-.01-.576-.071-.811-.233a.824.824 0 0 1-.225-.219c-.311-.449-.178-1.125-.008-1.59.112-.293.242-.58.413-.846-.651-.243-1.517-.246-2.178-.02.152.251.285.51.395.778.208.502.371 1.257.013 1.747-.073.11-.204.219-.204.219-.211.184-.486.23-.779.212-.623-.055-1.164-.304-1.692-.587-.186.625-.18 1.421.028 2.031.142-.102.288-.191.438-.274.519-.279 1.268-.528 1.843-.195.055.03.105.064.152.102.066.05.17.184.17.184.134.179.193.398.211.62.036.7-.248 1.283-.577 1.838v.009c.622.216 1.44.222 2.07.016-.054-.102-.108-.202-.153-.307-.281-.609-.516-1.493-.108-2.119a.65.65 0 0 1 .031-.042s.07-.104.213-.202c.244-.167.553-.207.869-.163.516.079.982.283 1.423.55 0 0 .014.01.016.005.205-.624.223-1.432.028-2.058zm-1.594.779c-.528-.006-.848-.173-.848-.173.112.152.119.4.119.4 0 .155-.046.31-.126.439.454-.269.993-.174.993-.174a3.94 3.94 0 0 1 1.236.41c.054-.222.084-.464.084-.705 0-.203-.02-.398-.059-.581-.49.261-.936.384-1.399.384zm-1.359-.636a.45.45 0 0 1 .112.083l-.024-.041c-.13-.206-.196-.466-.196-.776l.001-.024c.004-.349.089-.685.161-.905v-.003a5.44 5.44 0 0 1 .246-.616 2.483 2.483 0 0 0-1.295-.012c.086.177.163.358.229.539.07.192.189.575.199.981l.001.058c0 .318-.068.585-.203.799a.734.734 0 0 1 .769-.083zm-.277 1.827a.795.795 0 0 1-.265-.034.56.56 0 0 1-.234-.116c.158.376.165.642.165.642v.004l.001.002.002.122c0 .608-.21 1.127-.4 1.519.382.103.83.106 1.216.009l-.032-.079-.002-.004a3.982 3.982 0 0 1-.275-1.057 2.704 2.704 0 0 1-.013-.266v-.023c.002-.065.004-.129.01-.193.005-.06.012-.12.023-.18.011-.056.027-.111.041-.166a2.48 2.48 0 0 1 .137-.328c-.042.025-.083.063-.127.085a.627.627 0 0 1-.247.063zm-.949-.728a.773.773 0 0 1 .089-.641c-.22.169-.509.241-.877.218h-.004c-.584-.048-1.097-.257-1.486-.442a2.93 2.93 0 0 0 .012 1.262c.065-.037.132-.074.205-.112l.002-.001c.322-.163.634-.269.927-.316 0 0 .671-.148 1.226.231a.81.81 0 0 1-.093-.195l-.001-.004z"/></g><g fill="#231f20" fill-rule="nonzero"><path d="M46.977 9.114c.392 0 .83 0 1.305-.035v.285s-.072-.012-.202-.012c-.878 0-.878.521-.878 1.292v3.143c0 2.371-.806 3.438-3.166 3.438-2.11 0-3.118-.806-3.118-2.525v-4.257c0-.819-.154-1.056-1.139-1.079v-.273c.558.035 1.139.047 1.755.047.617 0 1.198-.012 1.755-.047v.273h-.178c-.83 0-.96.403-.96 1.079v4.09c0 1.542.652 2.277 2.17 2.277 1.779 0 2.55-.865 2.55-2.727v-3.439c0-.996-.06-1.28-1.068-1.28v-.285c.332.024.724.035 1.174.035zM50.297 12.802c.475-.759 1.103-1.103 1.957-1.103 1.115 0 1.755.534 1.755 1.554v2.929c0 .474.237.605.854.616v.249a22.132 22.132 0 0 0-1.376-.059c-.356 0-.818.012-1.375.059v-.249c.604-.011.853-.154.853-.592v-2.882c0-.842-.367-1.257-1.114-1.257-.807 0-1.494.712-1.494 1.708v2.407c0 .474.237.605.854.616v.249a22.164 22.164 0 0 0-1.376-.059c-.356 0-.818.012-1.376.059v-.249c.605-.011.842-.154.842-.592 0-.012.012-.083.012-.19V13.17c0-.688-.107-.913-.747-.913h-.107v-.237c.463 0 1.008-.166 1.672-.451.107.368.155.783.166 1.233zM57.199 9.198a.61.61 0 0 1-.617.604.6.6 0 0 1-.605-.604c0-.344.261-.617.605-.617a.62.62 0 0 1 .617.617zm.023 6.818v.166c0 .45.226.593.807.616v.249a17.378 17.378 0 0 0-1.328-.059c-.427 0-.866.024-1.305.059v-.249c.558-.023.783-.166.783-.592v-2.858-.297c0-.581-.036-.794-.652-.794h-.095v-.237c.522-.048 1.114-.202 1.79-.451v4.447zM59.309 11.854c.391 0 .783-.012 1.162-.048v.261c-.438 0-.628.059-.628.332 0 .142.071.451.273.913l1.114 2.573.522-1.375c.403-1.067.664-1.731.664-2.04 0-.272-.202-.403-.617-.403v-.261c.285.024.546.048.819.048.249 0 .521-.024.818-.048v.261h-.024c-.356 0-.557.415-.901 1.269l-1.53 3.818h-.261l-1.921-4.541c-.154-.356-.261-.487-.747-.546v-.261c.451.036.878.048 1.257.048zM67.384 13.17c0-.795-.498-1.245-1.162-1.245-.759 0-1.352.569-1.47 1.518h2.597c.024-.154.035-.249.035-.273zm-2.703.617a6.354 6.354 0 0 0-.036.592c0 1.423.795 2.372 1.897 2.372.629 0 1.044-.225 1.53-.783l.214.226c-.487.687-1.174 1.019-2.076 1.019-1.636 0-2.762-1.174-2.762-2.668 0-1.505 1.173-2.869 2.798-2.869 1.293 0 2.206.83 2.206 2.004v.107h-3.771zM70.811 12.909c.368-.747 1.008-1.15 1.672-1.15.605 0 .949.261.949.628 0 .297-.166.475-.403.475-.534 0-.261-.688-.925-.688-.653 0-1.198.569-1.198 1.601v2.407c0 .474.237.605.854.616v.249a22.132 22.132 0 0 0-1.376-.059c-.355 0-.818.012-1.375.059v-.249c.605-.011.853-.154.853-.592v-2.917c0-.783-.189-1.044-.841-1.044h-.131v-.237a10.352 10.352 0 0 0 1.731-.403c.131.355.178.794.19 1.304zM76.823 11.699h.142c-.011.368-.023.712-.023 1.032v.356h-.19c-.119-.688-.664-1.15-1.221-1.15-.475 0-.819.261-.819.652 0 .486.344.7 1.079 1.103.937.521 1.613.735 1.613 1.873 0 1.02-.664 1.648-1.779 1.648-.486 0-.972-.177-1.328-.486l-.201.332h-.107c.012-.439.012-.699.012-.794 0-.19-.012-.463-.012-.83h.166c.166.937.771 1.494 1.482 1.494.581 0 1.032-.391 1.032-.89 0-.592-.451-.841-1.21-1.233-.96-.51-1.458-.936-1.458-1.684 0-.841.605-1.446 1.506-1.446.367 0 .723.107 1.091.32l.225-.297zM79.74 9.198a.61.61 0 0 1-.617.604.599.599 0 0 1-.604-.604c0-.344.26-.617.604-.617a.62.62 0 0 1 .617.617zm.024 6.818v.166c0 .45.225.593.806.616v.249a17.378 17.378 0 0 0-1.328-.059c-.427 0-.866.024-1.304.059v-.249c.557-.023.782-.166.782-.592v-2.858-.297c0-.581-.035-.794-.652-.794h-.095v-.237c.522-.048 1.115-.202 1.791-.451v4.447zM82.562 10.514v1.304h1.387v.356h-1.375v3.569c0 .712.213 1.067.759 1.067.32 0 .593-.19.83-.557l.213.19c-.284.51-.735.723-1.399.723-1.162 0-1.411-.498-1.411-1.482v-3.51h-.557v-.19c.522-.308.984-.806 1.351-1.47h.202zM85.443 11.854c.178 0 .641-.012 1.364-.048v.261c-.474.012-.688.083-.688.391 0 .072.036.19.083.321l1.186 3.059 1.127-2.727c.083-.202.118-.415.118-.593 0-.32-.178-.439-.616-.451v-.261c.355.024.64.048.83.048.237 0 .498-.024.806-.048v.261h-.036c-.26 0-.462.261-.699.842l-1.53 3.688c-1.091 2.644-1.553 3.782-2.099 3.782-.189 0-.32-.142-.32-.355 0-.463.403-.534.64-.652.237-.119.736-.913 1.056-1.85l.189-.569-1.672-4.02c-.213-.51-.225-.807-.877-.866v-.261c.451.036.83.048 1.138.048zM99.222 9.126h.154l.095 2.206h-.237c-.296-1.411-1.21-2.17-2.561-2.17-1.696 0-2.834 1.458-2.834 4.02 0 2.348 1.162 3.747 2.881 3.747 1.364 0 2.324-.913 2.644-2.633h.214v2.55h-.143l-.213-.593c-.937.64-1.791.972-2.798.972-2.36 0-4.044-1.601-4.044-3.984 0-2.502 1.719-4.316 4.221-4.316.913 0 1.684.237 2.467.77l.154-.569zM101.511 14.451c0 1.6.604 2.502 1.648 2.502 1.103 0 1.707-.866 1.707-2.55 0-1.613-.652-2.49-1.695-2.49-.985 0-1.66.925-1.66 2.538zm1.731-2.775c1.577 0 2.775 1.34 2.775 2.703 0 1.483-1.186 2.823-2.799 2.823-1.612 0-2.858-1.127-2.858-2.763 0-1.601 1.305-2.763 2.882-2.763zM108.163 16.016v.166c0 .474.237.605.854.616v.249a22.132 22.132 0 0 0-1.376-.059c-.356 0-.818.012-1.375.059v-.249c.604-.011.842-.154.842-.592 0-.012.011-.083.011-.19V9.779c0-.522-.249-.712-.865-.724v-.213c.367-.024 1.008-.131 1.909-.344v7.518zM111.436 16.016v.166c0 .474.237.605.853.616v.249a22.104 22.104 0 0 0-1.375-.059c-.356 0-.818.012-1.376.059v-.249c.605-.011.842-.154.842-.592 0-.012.012-.083.012-.19V9.779c0-.522-.249-.712-.866-.724v-.213c.368-.024 1.008-.131 1.91-.344v7.518zM116.534 13.17c0-.795-.498-1.245-1.162-1.245-.758 0-1.351.569-1.47 1.518h2.597c.024-.154.035-.249.035-.273zm-2.703.617a6.354 6.354 0 0 0-.036.592c0 1.423.795 2.372 1.898 2.372.628 0 1.043-.225 1.529-.783l.214.226c-.486.687-1.174 1.019-2.076 1.019-1.636 0-2.762-1.174-2.762-2.668 0-1.505 1.174-2.869 2.798-2.869 1.293 0 2.206.83 2.206 2.004v.107h-3.771zM119.285 13.597c0 1.043.463 1.636 1.186 1.636.735 0 1.198-.581 1.198-1.719 0-1.008-.51-1.601-1.233-1.601-.653 0-1.151.605-1.151 1.684zm-.996 0c0-1.103.937-1.921 2.218-1.921.593 0 1.126.19 1.553.545.439-.308.771-.51 1.15-.51.451 0 .724.214.724.534 0 .213-.166.38-.368.38-.344 0-.439-.439-.794-.439-.131 0-.297.071-.522.225.296.403.439.759.439 1.221 0 1.186-.724 1.72-2.17 1.826-.854.06-1.459.095-1.459.546 0 .379.51.379 1.542.391 1.826.024 2.715.498 2.715 1.85 0 1.245-.996 2.051-2.704 2.051-1.517 0-2.537-.735-2.537-1.648 0-.557.427-.996.877-.996a.63.63 0 0 1 .487.225c-.38.095-.593.416-.593.902 0 .735.711 1.221 1.802 1.221 1.233 0 1.885-.51 1.885-1.376 0-.984-.735-1.138-2.039-1.15-1.293-.012-2.004-.296-2.004-1.091 0-.557.379-.913 1.103-1.067-.83-.296-1.305-.937-1.305-1.719zM128.001 13.17c0-.795-.498-1.245-1.162-1.245-.759 0-1.352.569-1.471 1.518h2.597c.024-.154.036-.249.036-.273zm-2.704.617a6.659 6.659 0 0 0-.035.592c0 1.423.794 2.372 1.897 2.372.628 0 1.043-.225 1.529-.783l.214.226c-.486.687-1.174 1.019-2.075 1.019-1.636 0-2.763-1.174-2.763-2.668 0-1.505 1.174-2.869 2.799-2.869 1.292 0 2.205.83 2.205 2.004v.107h-3.771z"/></g><g fill="#231f20" fill-rule="nonzero"><path d="M47.714 30.349c0 1.996-.723 3.494-2.627 3.494-2.009 0-2.666-1.393-2.666-3.507v-2.837c0-1.366.026-1.589.788-1.655l.315-.026c.079-.052.053-.276-.026-.315-.644.026-1.077.039-1.616.039-.525 0-.971-.013-1.628-.039-.079.039-.105.263-.026.315l.328.026c.762.066.788.289.788 1.655v3.1c0 1.563.328 2.521 1.024 3.099.644.552 1.55.723 2.456.723.972 0 1.944-.342 2.509-.959.735-.788.919-1.997.919-3.139v-1.484c0-.736 0-2.246.184-2.679.079-.171.328-.289.657-.316l.315-.026c.066-.079.079-.249-.026-.315-.473.026-.828.039-1.379.039-.512 0-.998-.013-1.498-.039-.078.052-.105.223-.026.315l.329.026c.328.027.564.119.656.276.224.394.25 1.904.25 2.719v1.51zM50.143 29.929c0 1.694.815 2.889 1.865 3.612.959.643 2.089.88 3.271.88.84 0 1.786-.198 2.075-.303.144-.052.302-.105.459-.131.197-.249.539-1.116.631-1.799-.053-.092-.25-.118-.342-.053-.302.775-1.05 1.878-2.745 1.878-2.153 0-3.9-1.523-3.9-4.281 0-2.719 1.707-3.993 3.717-3.993 1.904 0 2.495 1.025 2.692 1.918.092.079.289.065.355-.027a27.255 27.255 0 0 1-.184-1.93c-.118.013-.21-.013-.368-.053a10.17 10.17 0 0 0-2.325-.315c-1.366 0-2.587.368-3.546 1.116-.998.775-1.655 2.023-1.655 3.481zM61.465 26.475c0-.499 0-.526.394-.526h.801c.551 0 .985 0 1.274.079.656.171.814.657.919 1.248.092.079.276.039.315-.04a35.256 35.256 0 0 1-.039-1.733c-.171.039-.933.039-1.773.039h-2.417c-.525 0-.972-.013-1.523-.039-.079.039-.105.276-.027.328l.211.026c.761.092.788.276.788 1.655v4.728c0 1.379-.027 1.55-.788 1.642l-.329.039c-.079.079-.052.289.027.329.617-.027 1.063-.04 1.641-.04.526 0 .972.013 1.747.04.079-.04.105-.276.026-.329l-.446-.039c-.775-.066-.801-.263-.801-1.642v-1.825c0-.342.039-.355.433-.355h.893c.499 0 .827.013 1.011.066.25.079.355.263.421.499l.131.512c.092.079.289.079.341 0 0-.302-.052-.801-.052-1.274 0-.486.052-1.011.052-1.326-.052-.079-.275-.079-.341 0l-.118.525c-.079.341-.184.407-.329.46-.157.052-.577.079-1.116.079h-.893c-.394 0-.433 0-.433-.355v-2.771zM66.613 32.739c0 .946-.013 1.077-.499 1.143l-.276.039c-.092.066-.066.289.026.329.368-.027.762-.04 1.235-.04.46 0 .84.013 1.234.04.092-.04.119-.263.027-.329l-.276-.039c-.473-.066-.499-.197-.499-1.143v-2.364c0-.538.026-1.169.052-1.628-.013-.053-.065-.079-.131-.079-.302.197-1.051.538-1.353.644-.065.039-.065.183-.013.236l.118.079c.355.236.355.302.355.814v2.298zm.433-6.724c-.394 0-.709.276-.709.709 0 .355.263.657.67.657.368 0 .696-.21.696-.683 0-.368-.263-.683-.657-.683zM69.988 32.739c0 .946-.013 1.077-.499 1.143l-.276.039c-.092.066-.065.289.027.329.367-.027.761-.04 1.234-.04.46 0 .841.013 1.195.04.092-.04.119-.263.027-.329l-.237-.039c-.473-.079-.499-.197-.499-1.143V30.73c0-.381.026-.565.197-.788.184-.25.617-.46 1.116-.46.894 0 1.235.552 1.235 1.301v1.956c0 .946-.013 1.064-.499 1.143l-.25.039c-.092.066-.065.289.027.329.354-.027.748-.04 1.221-.04.46 0 .841.013 1.235.04.092-.04.118-.263.026-.329l-.289-.039c-.473-.066-.499-.197-.499-1.143V30.48c0-.879-.447-1.628-1.537-1.628-.67 0-1.287.328-1.838.67-.092 0-.145-.066-.145-.145 0-.118 0-.315.026-.617-.026-.066-.092-.092-.144-.092-.263.197-1.011.538-1.313.644-.066.039-.066.183-.014.236l.119.079c.354.236.354.302.354.814v2.298zM77.146 32.056c-.841.303-1.09.605-1.09 1.117 0 .368.158.696.407.919.223.197.539.302.919.302.368 0 .657-.171.946-.328.263-.145.42-.263.512-.263.079 0 .158.105.21.184.224.289.539.407.854.407.644 0 1.103-.512 1.103-.578 0-.092-.039-.17-.092-.17-.039 0-.105.052-.17.092a.762.762 0 0 1-.329.078c-.512 0-.63-.538-.604-1.142l.079-2.285c.039-.986-.42-1.537-1.366-1.537-.959 0-2.443.932-2.443 1.615 0 .119.066.184.184.184.197 0 .552-.092.749-.249.105-.079.118-.237.131-.447.026-.407.473-.591.841-.591.814 0 .971.657.958 1.143l-.013.604c0 .197-.026.315-.223.381l-1.563.564zm-.079.959c0-.512.381-.709 1.156-.972.236-.078.46-.131.538-.131.079 0 .132.026.132.171l-.027.775c-.013.275-.013.459-.17.617-.132.131-.539.328-.801.328-.67 0-.828-.565-.828-.788zM82.189 32.739c0 .946-.013 1.077-.499 1.143l-.276.039c-.092.066-.065.289.027.329.367-.027.761-.04 1.234-.04.46 0 .841.013 1.195.04.092-.04.119-.263.027-.329l-.237-.039c-.473-.079-.499-.197-.499-1.143V30.73c0-.381.026-.565.197-.788.184-.25.617-.46 1.116-.46.894 0 1.235.552 1.235 1.301v1.956c0 .946-.013 1.064-.499 1.143l-.25.039c-.092.066-.065.289.027.329.354-.027.748-.04 1.221-.04.46 0 .841.013 1.235.04.092-.04.118-.263.026-.329l-.289-.039c-.473-.066-.499-.197-.499-1.143V30.48c0-.879-.447-1.628-1.537-1.628-.67 0-1.287.328-1.838.67-.092 0-.145-.066-.145-.145 0-.118 0-.315.026-.617-.026-.066-.092-.092-.144-.092-.263.197-1.011.538-1.313.644-.066.039-.066.183-.014.236l.119.079c.354.236.354.302.354.814v2.298zM91.448 28.852c-2.18 0-3.178 1.51-3.178 2.929 0 .853.302 1.497.762 1.943.459.447 1.103.67 1.799.67.762 0 1.747-.368 2.193-1.339-.013-.119-.131-.211-.236-.184-.302.446-.696.788-1.458.788-1.405 0-2.114-1.222-2.114-2.246 0-1.392.893-2.115 1.812-2.115.539 0 1.025.342 1.313.697a.232.232 0 0 0 .184.091c.158 0 .289-.249.289-.485 0-.224-.092-.434-.197-.526-.354-.157-.867-.223-1.169-.223zM97.188 30.848c.551 0 .735-.013.775-.092.026-.052.052-.157.052-.341 0-.788-.735-1.563-1.865-1.563-1.576 0-2.64 1.353-2.64 2.968 0 .578.158 1.195.552 1.707.381.499 1.051.867 1.904.867.683 0 1.629-.328 2.062-1.221-.013-.118-.105-.197-.236-.158-.407.512-.775.644-1.208.644-1.406 0-2.181-1.13-2.181-2.456 0-.329.014-.355.355-.355h2.43zm-2.548-.394c-.092 0-.092-.039-.092-.065.013-.434.683-1.143 1.458-1.143.761 0 1.011.46 1.011.827 0 .171-.039.224-.079.25-.105.079-.394.131-1.366.131h-.932zM100.694 28.852c-.998 0-1.786.538-1.786 1.497 0 .722.539 1.182 1.3 1.616.486.275 1.012.604 1.012 1.208 0 .565-.407.84-.88.84-.749 0-1.169-.63-1.392-1.352-.066-.079-.237-.066-.302.013-.027.433.052 1.077.157 1.326.328.263.788.394 1.405.394.972 0 1.892-.499 1.892-1.497 0-.932-.644-1.379-1.34-1.773-.46-.263-1.011-.552-1.011-1.09 0-.473.328-.801.84-.801.539 0 .933.381 1.156.959.066.078.263.052.315-.04 0-.354-.092-.775-.21-1.064-.118-.105-.604-.236-1.156-.236z"/></g></svg>