<svg viewBox="0 0 573 686" xmlns="http://www.w3.org/2000/svg" fill-rule="evenodd" clip-rule="evenodd" stroke-linejoin="round" stroke-miterlimit="1.414"><path d="M135.366 597.856c.95.622 2.147 1.36 3.591 2.228l-.7 1.175c-2.303-1.3-3.347-.559-4.853 1.985l-9.425 15.844-1.61-1.057-3.543-24.684-6.429 10.809c-1.471 2.475-1.35 4.147.472 5.388l-.734 1.24a174.098 174.098 0 0 0-4.259-2.925c-.919-.6-1.772-1.118-2.6-1.534l.753-1.269c2.328 1.194 3.353.475 4.787-1.931l7.56-12.722c.146-1.456-.457-2.39-1.857-3.394l.7-1.178c.753.625 1.7 1.247 2.766 1.932 1.147.762 2.269 1.493 3.328 2.065l3.288 21.291 5.368-9.035c1.507-2.531 1.438-3.962-.553-5.312l.697-1.178a115.459 115.459 0 0 0 3.253 2.262zM142.376 615.7c-3.047 6.275-2.46 10.628 1.559 12.781 4.05 2.163 7.369.028 10.506-6.447 3.113-6.409 2.553-10.737-1.647-12.984-3.925-2.103-7.262.147-10.418 6.65zm18.287-.359c1.053 3.153.816 6.384-.722 9.553-1.587 3.269-3.969 5.35-7.156 6.281-3.191.931-6.494.519-9.694-1.194-3.475-1.856-5.656-4.106-6.828-7.406-1.144-3.291-.925-6.569.694-9.897 1.6-3.297 3.965-5.434 7.25-6.394 2.947-.9 6.231-.456 9.434 1.257 3.594 1.928 5.85 4.331 7.022 7.8zM187.594 623.956c1.038.435 2.341.947 3.91 1.525l-.491 1.288c-2.487-.85-3.384.075-4.444 2.853l-6.6 17.353-1.765-.744-7.65-23.634-4.503 11.837c-1.032 2.704-.625 4.338 1.375 5.213l-.513 1.353a158.15 158.15 0 0 0-4.687-2.075c-1.007-.428-1.935-.775-2.819-1.031l.528-1.397c2.491.744 3.381-.15 4.384-2.794l5.294-13.915c-.1-1.46-.85-2.272-2.4-2.997l.491-1.294c.843.478 1.884.909 3.047 1.397 1.259.528 2.487 1.04 3.628 1.406l6.828 20.344 3.759-9.885c1.057-2.771.744-4.175-1.444-5.131l.488-1.287a122.07 122.07 0 0 0 3.584 1.615zM226.751 634.766c1.084.281 2.44.606 4.068.965l-.325 1.35c-2.571-.506-3.343.541-4.043 3.441l-4.344 18.119-1.841-.482-10.578-22.359-2.966 12.353c-.674 2.831-.071 4.385 2.026 4.972l-.341 1.425a147.9 147.9 0 0 0-4.903-1.419c-1.053-.272-2.016-.49-2.928-.622l.347-1.45c2.565.388 3.331-.621 3.993-3.387l3.485-14.525c-.285-1.438-1.128-2.141-2.757-2.647l.322-1.337c.894.343 1.982.631 3.197.943 1.316.357 2.597.691 3.772.891l9.341 19.216 2.475-10.325c.697-2.891.212-4.235-2.078-4.879l.318-1.346c1.628.506 2.906.871 3.76 1.103zM238.282 649c-.966 6.975.925 10.891 5.387 11.575 4.494.681 6.985-2.462 7.978-9.647.985-7.112-.871-11.034-5.534-11.74-4.359-.666-6.831 2.584-7.831 9.812zm17.206-6.516c1.963 2.638 2.728 5.775 2.244 9.3-.503 3.629-2.119 6.4-4.859 8.363-2.735 1.953-5.988 2.681-9.544 2.137-3.856-.584-6.61-1.975-8.735-4.715-2.087-2.725-2.884-5.9-2.368-9.603.503-3.66 2.093-6.482 4.906-8.5 2.519-1.841 5.766-2.532 9.319-1.991 3.997.613 6.865 2.122 9.037 5.009zM271.776 650.441c3.25.162 4.565-1.163 4.712-4.469.125-2.803-1.175-4.156-4.087-4.297-1.047-.056-1.125.122-1.147.622l-.356 8.072c.303.047.606.065.878.072zm1.343 11.793c2.438.119 3.769-1.525 3.916-4.871.156-3.485-1.438-5.094-5.094-5.275-.337-.013-.712-.029-1.119-.013l-.265 5.969c-.128 2.953.466 4.09 2.562 4.19zm-6-22.353c1.997.097 3.935.05 5.866.141 6.262.316 9.266 2.275 9.094 6.153-.128 2.913-2.347 4.697-6.438 5.106 4.916.872 7.538 3.038 7.369 6.8-.187 4.2-3.672 6.272-10.306 5.947-1.866-.09-3.957-.337-6.263-.45a73.097 73.097 0 0 0-4.578-.04l.066-1.529c2.578.088 3.222-.628 3.331-3.115l.653-14.756c.106-2.385-.44-3.054-2.978-3.216l.063-1.456c1.55.222 2.937.365 4.121.415zM294.076 640.372c1.962-.056 3.959-.15 5.959-.278l.037 1.459c-.134 0-.237.006-.371.006-2.475.079-2.828.835-2.763 3.254l.372 14.446c.075 2.738.497 3.404 3.313 3.391l.034 1.422c-2.372-.006-4.338.025-5.966.066-1.893.056-3.893.146-5.956.281l-.041-1.422c2.813-.153 3.2-.841 3.128-3.584l-.374-14.444c-.066-2.422-.491-3.153-2.966-3.081-.1 0-.2 0-.338.006l-.037-1.456c2.306.006 4.303-.019 5.969-.066zM317.801 638.788l1.587-.154c.175 2.016.403 4.25.716 6.654l-1.519.143c-.969-3.303-3.297-5.012-6.1-4.737-2.059.194-3.262 1.634-3.094 3.512.172 2.022 1.647 2.528 4.185 3.453 5.378 1.988 8.368 3.488 8.753 7.854.394 4.534-2.516 7.85-7.413 8.321-2.534.244-4.44-.178-6.278-1.715l-.253 1.769-1.588.156a53.906 53.906 0 0 0-.199-3.444 73.407 73.407 0 0 0-.457-4.072l1.553-.147c1.282 4.132 3.494 6.066 6.497 5.775 2.535-.247 3.988-1.881 3.785-4.228-.21-2.409-1.941-3.1-5.066-4.231-4.572-1.631-6.931-3.334-7.281-7.306-.35-4.044 2.15-6.957 6.234-7.35 2.231-.222 3.994.109 5.666 1.309l.272-1.562zM347.638 633.853l1.563-.334c.387 1.99.847 4.178 1.406 6.528l-1.494.319c-1.309-3.169-3.8-4.594-6.556-4.01-2.028.435-3.072 2.007-2.713 3.853.388 1.988 1.904 2.316 4.522 2.96 5.553 1.35 8.685 2.494 9.519 6.787.869 4.469-1.678 8.094-6.494 9.122-2.49.538-4.434.331-6.422-.981l-.065 1.794-1.56.337a57.514 57.514 0 0 0-.559-3.403 69.822 69.822 0 0 0-.881-3.991l1.531-.328c1.703 3.957 4.103 5.619 7.059 4.985 2.491-.532 3.766-2.328 3.319-4.632-.462-2.371-2.253-2.856-5.478-3.618-4.712-1.097-7.238-2.522-8-6.425-.769-3.975 1.412-7.169 5.431-8.035 2.191-.465 3.982-.34 5.766.653l.106-1.581zM363.266 643.2c1.91 6.756 5.191 9.484 9.516 8.138 4.353-1.357 5.356-5.31 3.387-12.269-1.946-6.897-5.196-9.635-9.712-8.222-4.225 1.316-5.169 5.356-3.191 12.353zm13.019-13.491c2.838 1.535 4.784 4.044 5.747 7.46.994 3.506.637 6.744-1.066 9.722-1.706 2.981-4.368 5.072-7.812 6.147-3.738 1.165-6.791 1.115-9.81-.435-2.987-1.553-4.978-4.087-5.987-7.675-1.003-3.547-.688-6.8 1.062-9.875 1.544-2.778 4.216-4.84 7.663-5.912 3.865-1.207 7.081-1.091 10.203.568zM387.569 622.206a209.267 209.267 0 0 0 5.441-2.39l.503 1.315c-.065.032-.128.057-.187.082-2.269.946-2.597 1.815-1.772 3.993l4.6 12.107c1.253 3.306 2.443 4.028 5.625 2.7 3.525-1.475 4.803-3.775 4.162-7.488l1.288-.541 2.387 6.666c-3.487 1.378-6.703 2.725-9.662 3.959-2.894 1.222-6.05 2.616-9.394 4.094l-.528-1.39c.128-.054.253-.104.344-.141 2.05-.863 2.225-1.928 1.297-4.381l-5.197-13.685c-.753-1.984-1.653-2.337-3.732-1.456a.757.757 0 0 0-.156.063l-.503-1.329a168.785 168.785 0 0 0 5.484-2.178zM422.247 606.381a66.67 66.67 0 0 0 3.601-1.984l.587 1.241c-1.991 1.39-2.219 2.584-1.075 5.015l3.463 7.328c1.312 2.778 2.093 4.991 1.781 7.294-.388 2.788-2.397 5.263-5.856 7.066-3.191 1.662-5.888 2.112-8.372 1.181-1.972-.722-3.407-2.641-4.879-5.759l-3.678-7.782c-1.312-2.775-2.025-3.4-4.618-2.25l-.585-1.24c1.791-.853 3.506-1.7 5.144-2.56a263.577 263.577 0 0 0 5.425-2.943l.588 1.24c-2.447 1.472-2.526 2.431-1.288 5.047l3.916 8.288c2.228 4.718 4.453 6.071 8.4 4.012 4.643-2.422 4.853-5.512 2.384-10.744l-3.466-7.331c-1.19-2.516-2.218-3.087-4.54-2.162l-.56-1.182a73.505 73.505 0 0 0 3.628-1.775zM431.854 600.403a98.523 98.523 0 0 0 3.915-2.684l13.982 10.35-3.022-17.528a74.116 74.116 0 0 0 2.268-1.36 129.09 129.09 0 0 0 4.672-3.237l.7 1.178c-2.425 1.637-2.396 2.622-1.05 4.894l7.319 12.315c1.185 1.994 2.091 2.241 4.444.825l.719 1.203c-2.691 1.6-4.316 2.625-4.922 3.016-1.725 1.134-3.375 2.25-4.9 3.378l-.719-1.203c2.3-1.841 2.1-2.512.809-4.687l-6.584-11.082 3.166 19.113-1.35.89-15.453-11.618 5.996 10.093c1.813 3.044 2.978 4 5.247 2.641l.738 1.234c-1.725 1.007-2.91 1.7-3.516 2.097a58.56 58.56 0 0 0-3.231 2.291l-.738-1.244c2.179-1.506 1.807-2.947-.028-6.028l-7.515-12.644c-.913-.325-1.882-.072-3.182.697l-.665-1.119c.919-.478 1.865-1.1 2.9-1.781z" fill="#98002e" fill-rule="nonzero"/><path d="M565.785 453.753c-.425 1.928-1.041 3.819-1.712 5.672-1.385 3.819-3.407 7.253-5.957 10.338a30.308 30.308 0 0 1-4.634 4.518c-.853.666-1.45 1.038-1.863 1.247-9.55-9.45-20.512-17.553-31.112-25.384 0 0-2.213-1.641-4.538-3.372 1.172-1.009 2.322-2.375 3.36-3.828 1.059-1.491 2.203-2.866 3.119-4.475 1.659-2.897 2.834-6.331 3.94-9.513 1.266-3.631 2.228-7.44 2.497-11.309 9.841 9.275 21.328 17.087 31.769 24.191l2.912 1.975c1.228.84 2.641 2.024 2.928 3.621.035.194.06.391.075.597.128 1.788-.428 4.1-.784 5.722zm-62.259 56.338c-2.307-2.397-4.35-5.81-7.322-7.338-3.097-1.587-6.644-1.64-9.916-.628-7.297 2.263-11.694 8.884-17.322 13.722-1.831 1.578-3.859 2.878-5.928 4.075-2.425 1.406-5.422 3.006-8.281 2.7-.944-.103-1.603-.469-2.134-1.178-4.676-6.322.306-22.741 2.69-30.635 7.875-25.937 25.634-61.075 51.875-81.89 2.341-1.853 6.641-2.672 9.46-2.153 4.043.75 5.878 4.275 5.887 8.347.009 3.078-.541 6.512-1.413 9.443l-8.028-6.922c-5.059 4.807-10.25 10.785-11.021 18.279-.944 9.15 6.196 13.218 12.281 17.84.825.628 1.659 1.244 2.487 1.856 3.291 2.438 6.625 4.9 9.925 7.416-12.672 11.172-21.156 28.431-23.24 47.066zm18.653 25.162l8.734 7.55c3.375 3.241 5.631 4.569 6.072 7.031 1.416 7.919-4.766 15.947-9.359 20.782-16.947 17.815-38.766 36.753-59.307 50.481-32.072 21.425-66.972 36.531-102.421 46.944-17.035 5.006-45.672 9.453-45.672 9.453-5.332.503-10.682.865-16.032 1.062-5.353.2-10.703.225-16.056.213h-1.681c-4.866-.006-9.728 0-14.588-.135-5.453-.159-10.909-.334-16.331-.934-33.544-3.725-49.562-9.619-49.562-9.619-35.694-9.45-71.991-25.015-103.597-47.19-20.228-14.194-38.372-32.46-55.316-50.275-4.594-4.835-10.019-12.41-8.809-20.366.418-2.756 2.15-6.025 5.522-9.259l7.006-5.738c7.544-6.45 15.287-12.709 22.337-19.925-.547.556 3.653 5.9 4.053 6.397 5.654 6.972 11.507 13.772 17.46 20.466a372.752 372.752 0 0 0 18.312 19.19 376.216 376.216 0 0 0 10.694 10.041c11.125 10.044 23.569 19.162 36.781 25.937 25.385 13.004 54.05 22.041 82.904 26.116a330.5 330.5 0 0 0 17.387 2 255.95 255.95 0 0 0 17.662.944c6.663.112 13.36.134 20.022-.106a293.79 293.79 0 0 0 20.078-1.447c3.729-.397 7.451-.866 11.163-1.391 28.853-4.075 57.522-13.112 82.906-26.116 13.213-6.775 25.657-15.893 36.778-25.937 11.604-10.472 23.041-21.341 33.322-33.234a451.851 451.851 0 0 0 8.328-9.916c1.76-2.144 3.663-4.153 5.41-6.309.397-.494 4.6-5.832 4.053-6.391 7.05 7.209 14.203 13.231 21.747 19.681zM46.191 463.025c3.3-2.516 6.635-4.978 9.928-7.416a219.42 219.42 0 0 0 2.485-1.856c6.084-4.622 13.225-8.69 12.281-17.84-.772-7.494-5.966-13.472-11.022-18.279l-8.028 6.922c-.869-2.931-1.419-6.365-1.413-9.443.013-4.072 1.844-7.597 5.891-8.347 2.816-.519 7.116.3 9.456 2.153 26.241 20.815 44.003 55.953 51.875 81.89 2.388 7.894 7.366 24.313 2.691 30.635-.531.709-1.188 1.075-2.134 1.178-2.86.306-5.857-1.294-8.282-2.7-2.068-1.197-4.097-2.497-5.928-4.075-5.628-4.838-10.025-11.459-17.322-13.722-3.268-1.012-6.818-.959-9.915.628-2.972 1.528-5.013 4.941-7.322 7.338-2.085-18.635-10.569-35.894-23.241-47.066zm-24.85 12.503c-.415-.209-1.012-.581-1.865-1.247a30.314 30.314 0 0 1-4.635-4.518c-2.55-3.085-4.569-6.519-5.956-10.338-.672-1.853-1.288-3.744-1.713-5.672-.356-1.622-.912-3.934-.784-5.722.016-.206.041-.403.075-.597.291-1.597 1.7-2.781 2.928-3.621l2.913-1.975c10.44-7.104 21.931-14.916 31.768-24.191.269 3.869 1.232 7.678 2.497 11.309 1.107 3.182 2.285 6.616 3.941 9.513.919 1.609 2.056 2.984 3.122 4.475 1.037 1.453 2.184 2.819 3.356 3.828-2.325 1.731-4.534 3.372-4.534 3.372-10.603 7.831-21.566 15.934-31.113 25.384zm551.263-30.837c-.835-3.1-3.066-5.497-5.578-7.216l-2.913-1.987c-6.325-4.3-12.653-8.607-18.75-13.25-6.003-4.579-11.728-9.507-16.969-15.032-2.859-3.018-5.131-5.953-9.121-7.306-4.632-1.569-11.916-.216-15.919 2.956-23.291 18.475-43.516 50.325-54.097 85.182-4.063 13.39-7.872 28.368-1.656 36.762 1.425 1.916 3.396 3.409 5.065 5.081a1061.38 1061.38 0 0 1 5.76 5.853c1.034 1.063 2.093 2.1 3.106 3.191l4.659 5.166c-15.584 18.2-33.984 35.893-56.447 47.218-24.853 12.535-52.772 21.522-80.95 25.507-8.562 1.206-19.318 1.993-28.09 2.35l-14.594.181-13.856-.181c-8.772-.357-19.525-1.144-28.091-2.35-28.178-3.985-56.094-12.972-80.95-25.507-22.459-11.325-40.878-28.762-56.694-47.162l4.907-5.222c1.015-1.091 2.071-2.128 3.106-3.191a935.762 935.762 0 0 1 5.762-5.853c1.666-1.672 3.635-3.165 5.063-5.081 6.215-8.394 2.406-23.372-1.653-36.762-10.585-34.857-30.81-66.707-54.1-85.182-4-3.172-11.285-4.525-15.919-2.956-3.991 1.353-6.263 4.288-9.122 7.306-5.237 5.525-10.962 10.453-16.966 15.032-6.1 4.643-12.428 8.95-18.75 13.25l-2.915 1.987c-2.513 1.719-4.744 4.116-5.578 7.216-.9 3.362.115 7.325.847 10.615 2.059 9.272 7.196 17.822 14.453 23.563 1.603 1.262 3.522 2.603 5.559 2.859 1.988.25 3.366-.909 4.716-2.278 1.453-1.466 2.972-2.862 4.5-4.247 3.39-3.069 6.903-5.984 10.475-8.819 13.275 10.985 21.79 29.344 22.603 48.835-5.416 5.125-11.135 10.025-16.741 14.819l-7.084 5.79c-3.266 2.891-7.163 7.813-7.778 14.047-.978 9.884 5.356 19.844 10.622 25.369 17.29 18.153 35.5 37.247 56.44 51.244 32.644 21.803 69.272 37.731 105.46 48.025 26.943 7.665 54.031 11.312 82.031 10.878h.044c28.003.434 54.846-3.922 81.012-10.844 36.353-9.622 72.385-26.681 105.025-48.484 20.941-13.994 42.334-32.922 59.625-51.075 5.266-5.525 11.6-15.266 10.622-25.154-.616-6.237-4.512-9.293-7.778-12.187l-8.816-7.609c-5.606-4.794-11.325-9.694-16.74-14.819.812-19.491 9.328-37.85 22.603-48.835 3.572 2.835 7.084 5.75 10.475 8.819 1.531 1.385 3.05 2.781 4.503 4.247 1.347 1.369 2.728 2.528 4.712 2.278 2.038-.256 3.957-1.597 5.56-2.859 7.256-5.741 12.397-14.291 14.453-23.563.731-3.29 1.75-7.253.847-10.615z" fill="#98002e" fill-rule="nonzero"/><path d="M487.363 96.666c3.797 1.012 5.447 5.787 5.403 9.765-.059 5.3-1.525 10.891-.087 17.703.512 2.419 1.103 3.285 1.103 3.285s-14.316.018-14.325.022c-.456-.466 2.437-22.316 2.437-22.316s.819-3.625-.006-5.156c-.95-1.772-2.887-1.253-2.887-1.253s4.068-3.2 8.362-2.05zm-21.509 17.512c4.834-5.047 8.834-9.728 9.312-10.372 2.619-3.572 4.178-3.422 4.71-2.965.593.509.115 2.965.115 2.965l-1.843 14.213s-2.732 3.772-7.938 5.572c-3.794 1.315-8.006.603-9.659-.207-2.4-1.168-3.941-5.081-3.941-5.081s3.319 2.069 9.244-4.125zm-6.647 3.078c-1.528.306-2.531-.122-3.416-1.031-.472-.481-.875-3.028-1.034-4.491-.147-1.331.062-4.362.062-4.362s4.944.769 7.107 1.2c2.165.434 6.065 1.515 6.065 1.515s-5.275 6.469-8.784 7.169zm-62.059-18.54s-1.938-.519-2.888 1.253c-.822 1.531-.003 5.156-.003 5.156s2.891 21.85 2.437 22.316c-.009-.004-14.325-.022-14.325-.022s.591-.866 1.1-3.285c1.441-6.812-.025-12.403-.084-17.703-.047-3.978 1.606-8.753 5.406-9.765 4.294-1.15 8.357 2.05 8.357 2.05zm22.393 19.587s-1.54 3.913-3.94 5.081c-1.653.81-5.866 1.522-9.66.207-5.206-1.8-7.94-5.572-7.94-5.572l-1.841-14.213s-.478-2.456.116-2.965c.531-.457 2.087-.607 4.709 2.965.472.644 4.478 5.325 9.309 10.372 5.929 6.194 9.247 4.125 9.247 4.125zm-11.384-8.216s3.903-1.081 6.069-1.515c2.165-.431 7.109-1.2 7.109-1.2s.206 3.031.059 4.362c-.159 1.463-.562 4.01-1.034 4.491-.888.909-1.887 1.337-3.419 1.031-3.506-.7-8.784-7.169-8.784-7.169zm60.006-1.774s-14.731-4.216-30.744-4.216c-16.015 0-29.525 4.053-29.525 4.053s-.093-4.059-.822-7.928c-.603-3.175-1.475-5.2-1.475-5.2s15.791-2.31 31.804-2.31c16.012 0 33.028 2.466 33.028 2.466s-.888 2.038-1.488 5.213c-.734 3.871-.778 7.922-.778 7.922zm-23.766-20.857c-.287-.128-.456-.634-.456-1.347V46.778c14.322 11.631 21.566 28.303 22.313 30.097-.141.616-1.291 2.531-1.866 3.475l-1.087 1.906-.269.638c-.603 1.44-1.513 3.618-2.825 3.812-.438.066-.903-.615-1.563-1.659-.928-1.469-2.193-3.481-4.703-3.266-2.603.222-4.662 2.153-6.481 3.86l-1.209 1.103c-.813.7-1.528.862-1.854.712zm-2.6-42.912v41.565c0 2.188 1.069 3.003 1.704 3.294 1.206.556 2.756.166 4.15-1.031l1.275-1.166c1.562-1.468 3.337-3.128 5.2-3.29 1.125-.097 1.775.793 2.709 2.275.816 1.297 1.831 2.912 3.684 2.634 2.51-.369 3.704-3.219 4.494-5.106l.253-.603.957-1.654c1.921-3.171 2.462-4.299 2.103-5.184-.025-.103-7.982-19.934-24.81-32.594l-1.719-1.29v2.15zm-9.571 2.234v39.331c0 .713-.172 1.219-.457 1.347-.321.15-1.04-.012-1.853-.712l-1.209-1.103c-1.819-1.707-3.881-3.638-6.484-3.86-2.507-.215-3.776 1.797-4.704 3.266-.656 1.044-1.121 1.725-1.559 1.659-1.312-.194-2.222-2.372-2.828-3.812l-.266-.638-1.087-1.906c-.578-.944-1.728-2.856-1.869-3.475.775-1.856 8.019-18.488 22.316-30.097zm.425-3.094c-16.828 12.66-24.785 32.491-24.844 32.675-.328.804.209 1.932 2.137 5.103l.953 1.654.257.603c.79 1.887 1.984 4.737 4.494 5.109 1.853.275 2.865-1.34 3.684-2.637.934-1.482 1.581-2.372 2.709-2.275 1.863.162 3.635 1.822 5.197 3.29l1.278 1.166c1.394 1.197 2.941 1.587 4.15 1.031.635-.291 1.703-1.106 1.703-3.294V42.394l-1.718 1.29zm5.125-16.987a2.417 2.417 0 0 0-2.416 2.415 2.415 2.415 0 1 0 2.416-2.415zm.04 64.012c-15.697 0-32.897 2.453-32.897 2.453-.715-1.221-2.425-5.106-4.034-6.393-2.175-1.738-6.137-1.991-5.875-4.841.228-2.475 4.781-2.303 6.622-.403.041.041 1.903-1.038 1.903-1.094 0 .072-3.225-6.05-3.225-6.05 9.95-20.59 25.234-34.684 33.416-40.79-2.191-.404-5.072-1.097-5.072-4.435 0-2.784 2.115-4.275 4.831-4.275.066 0-.022-1.059-.022-1.059 0-2.785 1.613-4.913 4.328-4.913h-.012c2.715 0 4.328 2.128 4.328 4.913 0 0-.088 1.059-.022 1.059 2.716 0 4.828 1.491 4.828 4.275 0 3.338-2.881 4.031-5.069 4.435 8.185 6.106 23.466 20.2 33.416 40.79 0 0-3.225 6.122-3.225 6.05 0 .056 1.859 1.135 1.9 1.094 1.844-1.9 6.397-2.072 6.625.403.266 2.85-3.703 3.103-5.875 4.841-1.612 1.287-3.322 5.172-4.034 6.393 0 0-17.203-2.453-32.897-2.453h.062zm-252.569 5.957c3.8 1.012 5.45 5.787 5.404 9.765-.057 5.3-1.522 10.891-.085 17.703.513 2.419 1.103 3.285 1.103 3.285s-14.315.018-14.322.022c-.459-.466 2.438-22.316 2.438-22.316s.816-3.625-.009-5.156c-.95-1.772-2.888-1.253-2.888-1.253s4.066-3.2 8.359-2.05zm-21.506 17.512c4.831-5.047 8.838-9.728 9.313-10.372 2.619-3.572 4.178-3.422 4.709-2.965.597.509.113 2.965.113 2.965l-1.838 14.213s-2.734 3.772-7.937 5.572c-3.797 1.315-8.013.603-9.663-.207-2.4-1.168-3.944-5.081-3.944-5.081s3.322 2.069 9.247-4.125zm-6.643 3.078c-1.532.306-2.535-.122-3.419-1.031-.472-.481-.875-3.028-1.035-4.491-.146-1.331.06-4.362.06-4.362s4.947.769 7.109 1.2c2.169.434 6.066 1.515 6.066 1.515s-5.272 6.469-8.781 7.169zm-62.06-18.54s-1.937-.519-2.891 1.253c-.821 1.531-.003 5.156-.003 5.156s2.894 21.85 2.438 22.316c-.01-.004-14.325-.022-14.325-.022s.59-.866 1.103-3.285c1.437-6.812-.028-12.403-.088-17.703-.043-3.978 1.607-8.753 5.407-9.765 4.293-1.15 8.359 2.05 8.359 2.05zm22.391 19.587s-1.541 3.913-3.941 5.081c-1.65.81-5.866 1.522-9.659.207-5.207-1.8-7.941-5.572-7.941-5.572l-1.841-14.213s-.478-2.456.116-2.965c.531-.457 2.088-.607 4.713 2.965.471.644 4.478 5.325 9.309 10.372 5.925 6.194 9.244 4.125 9.244 4.125zm-11.382-8.216s3.9-1.081 6.066-1.515c2.166-.431 7.109-1.2 7.109-1.2s.207 3.031.06 4.362c-.16 1.463-.563 4.01-1.035 4.491-.887.909-1.887 1.337-3.418 1.031-3.507-.7-8.782-7.169-8.782-7.169zm60-1.774s-14.728-4.216-30.74-4.216c-16.013 0-29.525 4.053-29.525 4.053s-.091-4.059-.825-7.928c-.597-3.175-1.472-5.2-1.472-5.2s15.791-2.31 31.803-2.31c16.013 0 33.028 2.466 33.028 2.466s-.887 2.038-1.49 5.213c-.732 3.871-.779 7.922-.779 7.922zm-23.765-20.857c-.285-.128-.453-.634-.453-1.347V46.778c14.322 11.631 21.568 28.303 22.315 30.097-.14.616-1.296 2.531-1.868 3.475l-1.085 1.906-.272.638c-.603 1.44-1.512 3.618-2.828 3.812-.434.066-.9-.615-1.556-1.659-.928-1.469-2.197-3.481-4.706-3.266-2.603.222-4.663 2.153-6.482 3.86l-1.209 1.103c-.816.7-1.531.862-1.856.712zm-2.597-42.912v41.565c0 2.188 1.069 3.003 1.706 3.294 1.203.556 2.753.166 4.144-1.031l1.281-1.166c1.563-1.468 3.335-3.128 5.197-3.29 1.125-.097 1.772.793 2.706 2.275.819 1.297 1.838 2.912 3.685 2.634 2.515-.369 3.706-3.219 4.493-5.106l.26-.603.953-1.654c1.922-3.171 2.462-4.299 2.106-5.184-.028-.103-7.987-19.934-24.812-32.594l-1.719-1.29v2.15zm-9.575 2.234v39.331c0 .713-.169 1.219-.45 1.347-.328.15-1.044-.012-1.856-.712l-1.213-1.103c-1.815-1.707-3.878-3.638-6.481-3.86-2.509-.215-3.775 1.797-4.703 3.266-.66 1.044-1.122 1.725-1.556 1.659-1.319-.194-2.229-2.372-2.832-3.812l-.272-.638-1.081-1.906c-.575-.944-1.728-2.856-1.869-3.475.775-1.856 8.022-18.488 22.313-30.097zm.428-3.094c-16.828 12.66-24.784 32.491-24.844 32.675-.328.804.216 1.932 2.135 5.103l.959 1.654.253.603c.791 1.887 1.981 4.737 4.497 5.109 1.847.275 2.866-1.34 3.681-2.637.935-1.482 1.582-2.372 2.707-2.275 1.865.162 3.637 1.822 5.2 3.29l1.278 1.166c1.393 1.197 2.943 1.587 4.147 1.031.637-.291 1.703-1.106 1.703-3.294V42.394l-1.716 1.29zm5.128-16.987a2.415 2.415 0 1 0 0 4.831 2.418 2.418 0 0 0 2.416-2.416 2.417 2.417 0 0 0-2.416-2.415zm.038 64.012c-15.694 0-32.897 2.453-32.897 2.453-.713-1.221-2.422-5.106-4.035-6.393-2.171-1.738-6.14-1.991-5.875-4.841.232-2.475 4.782-2.303 6.625-.403.041.041 1.9-1.038 1.9-1.094 0 .072-3.225-6.05-3.225-6.05 9.95-20.59 25.235-34.684 33.419-40.79-2.19-.404-5.072-1.097-5.072-4.435 0-2.784 2.113-4.275 4.828-4.275.066 0-.021-1.059-.021-1.059 0-2.785 1.612-4.913 4.328-4.913h-.01c2.716 0 4.325 2.128 4.325 4.913 0 0-.087 1.059-.018 1.059 2.715 0 4.825 1.491 4.825 4.275 0 3.338-2.879 4.031-5.069 4.435 8.181 6.106 23.469 20.2 33.415 40.79 0 0-3.224 6.122-3.224 6.05 0 .056 1.862 1.135 1.899 1.094 1.844-1.9 6.397-2.072 6.629.403.262 2.85-3.707 3.103-5.878 4.841-1.613 1.287-3.319 5.172-4.035 6.393 0 0-17.2-2.453-32.897-2.453h.063zm78.262 300.357c-.853 11.937-14.778 10.993-19.987 19.512 5.209-4.834 13.262-5.112 18.565-10.894 1.897-2.271 2.744-5.871 1.422-8.618zm-3.219-4.357c-1.612 3.504-5.306 5.31-8.621 5.682.378.187.662.187.946.475 2.463.753 4.832-.188 6.535-1.8.947-1.232 1.8-2.935 1.14-4.357zm-7.675-15.156c-1.99-.756-4.831-.756-6.44.853h2.272l1.894 2.278c1.803 1.129 3.506-1.14 5.399-.475-.471-1.331-1.893-2.278-3.125-2.656zm9.947-2.272c2.557-1.99 6.819-2.184 9.569-.468-2.181 1.321-1.897 3.974-2.466 6.153 1.135 2.084 1.894 5.962 4.735 5.681-.097 1.325-1.894 2.369-3.222 2.934 0 2.563-.281 5.4 2.084 6.816-.378 1.994-3.028.669-4.068 1.994-.194 3.312.756 6.44 3.596 7.959.757.566 1.61 0 2.275-.197.66 1.422-1.043 3.038-2.275 3.888-1.421.759-3.125.856-4.734 1.137-.094 1.228.85 2.753 1.138 4.075 1.418 5.869-.1 11.838-4.835 15.438.472-2.747-.284-5.775-2.65-7.485l-.95.947c1.044 3.791-.662 9.381 4.072 11.088-4.259 2.271-9.753.85-13.637-1.329-1.707.472-2.938 1.801-4.735 1.991-3.978-7.862-15.818 1.044-18.187-9.284-.378-1.325-1.135-2.65-1.135-4.075-2.084-.378-3.697 2.181-5.021 3.603-.476.662-.476 2.366-1.801 1.419l-1.796-2.272c0 2.272 1.515 4.55 3.409 6.347 1.606-2.091.85-5.688 3.597-6.822 1.706 4.162 4.925 8.997 9.569 10.228 3.503.572 9.09-2.178 9.946 2.747 2.841.662 4.638-3.125 7.575-2.081 1.422 4.64 3.125 9.181 3.41 14.299 7.103 4.641 7.197 14.213 15.912 16.579 5.494 1.703 10.325-1.519 13.832-5.685 1.512-2.275 2.081-5.403 1.134-8.147-3.031-7.293-14.772-11.643-10.703-21.403.853-3.981 5.115-5.493 7.956-7.959 7.106-4.353 15.441-8.05 19.988-16.103.565-1.803.187-3.788-1.328-5.019-2.463-2.178-5.494-2.462-8.619-1.613-.853.285-1.516 1.135-2.272 1.897-.285 1.422 1.231 2.46 2.272 2.932 1.419 0 2.747 0 3.881-.66 0 1.519 0 3.128-.944 4.266-1.894 1.703-4.55 2.369-7.012 2.081-1.041 2.275-1.894 5.113-4.547 6.347-3.5 2.747-10.51.475-11.175 6.628-1.988-1.415-.947-4.447-.947-6.444 2.462-3.778 7.388-6.625 5.969-12.025-1.232-1.043-3.125-1.421-3.697-3.125 0-2.656-.094-5.303 1.897-7.106 6.25 6.631 12.881-1.8 20.172-.662 4.643-.188 9.097.662 11.843 4.55 2.366 4.831-.096 9.943-3.221 13.631-6.632 6.831-14.682 10.331-21.972 15.447-1.044 1.131-2.275 2.559-1.613 4.072 1.231-1.61 2.841-2.941 4.738-3.413a9.304 9.304 0 0 1 4.356.766c.659 1.7-1.422.475-1.803 1.322-1.322 1.137-3.41 2.368-3.219 4.359 1.137.188 2.178-1.141 3.409-1.425 5.969-2.934 9.85 8.528 14.775.947v-.284h.475c.757 2.556-.281 4.925-1.609 6.821-1.516 1.329-3.031 2.747-4.737 3.41.284 1.131 1.896.756 2.653.472.284-.378.947-.094 1.137-.663.188 2.747-2.275 4.356-4.262 5.869l-3.885.953c.757 2.65.569 5.872-.662 8.144 2.462.472 5.112 2.365 5.681 5.022.853 4.359-1.325 8.047-2.556 11.84 0 1.041.756 2.272 1.894 2.46.19 0 .568 0 .662.287 0 .756-1.134.569-1.609.853-1.61.094-3.316.094-4.547-.853-2.366-3.412 1.043-8.528-2.935-10.894-8.24.094-17.618 5.688-25.481.379-.947.193-1.891-2.272-2.462-.379.378 2.844 1.515 6.254 4.737 7.194.381 2.753-6.725 4.269-3.222 7.106 2.841.188 6.347 0 7.294 3.129-.284.568-1.419-.188-1.797.759 1.513 1.797 3.597 3.312 2.744 6.059-.378-.565-1.041-1.512-1.8-1.512-.85.194-1.988.287-2.272 1.325-.378 2.462 1.706 4.356.666 6.815-.569-.756-1.425-1.04-2.275-.943-3.222 1.89 2.275 3.312.472 5.681-.851.756-1.704 1.797-1.422 2.747.665.287 1.043.953 1.8.665 0 .847-.85 1.229-1.325 1.891-2.272 1.138-3.788-2.362-5.872-.756l-1.138-1.135c-1.137 1.325-1.609 3.029-3.219 3.882-1.612-.757-3.315.284-3.884 1.803v.475c-.756.09-.569-1.044-.85-1.616.472-2.365 1.703-4.831 3.788-6.062-.285-.282-.285-.76-.666-.947-1.228.281-2.178 1.325-3.597 1.134-.947-.469-.853-1.89-2.084-1.606-.853.753-1.325 1.703-1.988 2.559-.475-1.14-.287-2.843.663-3.881 2.556-1.044 3.978-5.972 7.006-2.566 1.422.86 2.844-.284 3.222-1.512 1.609-3.888.187-8.147-2.272-11.175-1.8-4.169-3.409 1.044-5.494 1.134-2.178.472-4.831 1.038-6.537-.475 2.084-1.037 4.168-3.218 4.262-5.684-.187-2.269-3.409-2.741-3.884-5.206-1.609-5.113 1.516-9.282 1.422-14.3-1.988-.954-4.925 1.037-6.819-.954l-2.937-.471c-.566 3.322 6.915 4.64 2.937 8.243-5.778-.662-11.178 3.029-14.112 8.147l-1.329-2.465c-2.84 1.8-6.725 2.272-10.037 1.328 1.04-.572 1.987-1.706 2.272-2.935.093-.95-.947-1.615-1.61-2.084-2.275.469-4.737 2.562-5.4 4.825.188 1.803-.284 3.316-1.422 4.55-2.175.944-4.734-1.234-5.018 2.269l.284.665c-.759.091-2.275.091-2.556-1.134-1.235-2.934 1.987-4.741 1.134-7.484 1.044-1.422 3.981-1.988 3.031-4.072-2.556-2.653-4.45 2.559-7.578.381-.85-.381-1.515-1.234-1.515-2.275.284-.759-.566-1.037-.947-1.516-1.041.094-1.894.854-2.744 1.516 0-.662 0-2.372.944-3.128 1.519-1.703 4.169-1.231 5.212-3.406.944-.285 1.988-.766 2.935-.285 2.275.566 1.515 4.069 4.356 3.41 1.044-.666 1.425-1.891.853-2.935-.947-2.75-6.534-1.709-4.547-5.872 2.556-1.522-.187-3.131-1.325-4.075-.187 0-.569 0-.662-.284 1.325-.759 3.312-.475 4.734-.194 1.8 3.6 7.009 1.044 8.431 5.216.378 2.078.566 4.641-1.137 6.15.187.572.378 1.425 1.137 1.609 5.303-.372 10.891 0 15.438-2.081-4.547-3.6-6.819-9.281-5.397-14.966.569-1.415 1.703-3.034 3.125-3.693 3.125-.85 5.872.284 7.766 2.937l7.959-.19.472-.469c-4.641-5.116-10.988-6.063-15.534-11.56-1.704 1.991-2.369 5.31-1.138 7.672-2.556-.097-4.641-1.228-6.819-2.462-1.422 1.706-3.031 3.694-5.209 4.072l-2.272-.188c0-.856 1.231-2.365-.191-3.222h-.475c-3.031 5.116-8.24 5.494-13.45 4.835.194-1.71 3.6-3.319 1.425-4.55-2.847 1.231-5.118 3.981-8.906 2.937.378-1.519 2.841-3.122.284-4.072-1.706 1.707-3.315 4.072-5.684 4.919h-3.697c-.375-.847 3.225-1.794.953-3.119-.853-1.709 2.178-3.6-.953-3.887-3.122.665-2.647 8.15-7.29 4.737-.854-2.65-3.788-3.981-5.21-6.537.663-.563 1.706 0 2.272-.469 0-4.737 7.675 1.044 5.213-4.072-1.519-2.369-5.213 0-6.535-2.559l.188-3.788c-1.422-1.422-2.938-2.462-5.019-2.278.188-1.134 1.419-1.609 2.272-2.081 4.356-1.891 6.344 3.791 10.703 1.794 3.694 1.243.191 6.256 4.359 7.112.757.097 1.416-.191 1.988-.759-.288-3.128-7.675-5.969-1.988-9.097-.381-1.606-1.8-3.028-3.222-4.072 1.138-1.041 3.029-.759 4.357-.472 2.462.853 1.893 4.36 4.734 4.828 1.516 1.332 1.991 3.51 1.422 5.403-.569.757-.85 1.416-.947 2.269 1.231 3.225 4.263 1.241 6.347 1.425 3.978-.953 7.766-2.559 11.175-4.831 1.897.569 4.072 1.894 6.159.759-3.603-1.706-8.24-4.643-8.431-9.097 3.031 1.038 6.441 1.038 9.091-.946 5.022-4.072 7.012-12.125 14.115-12.504 7.766-.756 17.997 3.41 22.447-4.737-1.137-.184-2.556.572-3.884.853-2.65 0-6.628-1.134-8.147 1.797-2.081-.756-1.703-3.309-2.081-5.206 3.125-1.61 7.293-.475 10.512-1.8-7.859-4.738-18.087-4.738-26.425-8.9-1.422-1.235-1.987-2.841-1.987-4.738 0-2.469 1.418-4.734 3.406-5.872l2.462-.468c-.187 1.321-2.649 2.931-1.134 4.731 5.4 5.112 13.45 3.784 19.134 8.24l6.535 5.682c1.325-1.422 1.325-3.694.947-5.494-2.178-3.694-8.619.85-10.228-3.885-.666-1.796-.379-4.262-2.085-5.403.094-.562-.097-1.887.285-2.55h9.946c.944-.472.188-1.615.757-2.281 4.356-.659 8.712 2.375 12.5 0v-.659c1.8-.281 2.844 1.325 4.265 2.087zm-64.787-.284c.565.853.947 1.987.472 2.934-.757 1.703-4.357 2.375-3.219 4.835.566.284.85 1.228 1.609.846 1.703-.94 1.044-2.928 1.8-4.262 1.61-.666 3.507 1.425 4.357-.944.759-1.328-.285-2.556-.947-3.593 2.272.378 4.356 1.984 4.831 4.253.566 1.143-1.044 1.425-1.138 2.278-.378 1.606 1.232 4.45-1.609 4.162-1.8.288-4.169-.09-4.734 2.278-.857 10.038 10.984 12.119 16.29 18.566-1.137 3.691-3.884 7.763-7.672 9.378-2.843.281-5.118-.381-7.484-1.134-.475.562-.191 1.515-.284 2.272-3.691-.857-7.766-4.46-8.622-8.241 1.137.188 3.034.753 3.887-.384-.381-1.135-2.275-.563-3.222-1.422-1.706-.753-3.315-2.178-4.546-3.881.946 0 3.221 1.234 4.356-.185-1.516-2.278-5.21-1.806-5.966-5.022 1.138 0 2.463 1.232 3.219-.194.191-1.518-1.609-2.084-2.463-2.746-1.137.756-2.271 1.422-3.881 1.134-1.137-.756-2.178-2.272-3.697-1.322-1.134.278-1.04 1.513-1.512 2.278-1.044-1.712-1.044-3.793 0-5.493 3.787.184.565-5.785 4.734-3.885 1.138.563 1.988 1.794 3.413 1.603 1.512-.756.943-2.078.659-3.215l-1.609-1.332c-.663 1.804-3.032 1.425-4.547 1.141-3.503-1.519-.188-7.672-5.4-7.294.194-1.044 1.328-1.609 2.275-1.987 1.706-.472 3.412 1.794 4.734-.285 1.991-.284 3.6.379 4.547 1.797-.756 1.135.381 1.991.666 3.035.85 1.04 2.181 1.706 3.409 1.134 1.041-1.044 1.138-1.991.756-3.222-1.515-1.422-3.409-3.028-2.272-5.206.288-1.422 2.085-.097 2.654-1.138.093-1.425-.854-2.365-1.8-3.409 4.64-.856 3.881 5.303 7.956 5.872zm259.428 21.594c-1.322 11.846-15.056 10.515-20.266 19.137 5.494-5.115 12.978-5.022 18.372-10.237 1.994-2.363 2.938-5.772 1.894-8.9zm-3.409-4.263c-1.797 3.031-5.3 5.209-8.71 5.403.378.091.756.188.944.469 2.275.569 4.641.097 6.347-1.319.853-1.428 2.275-2.85 1.419-4.553zm-8.425-15.25c-1.894-.187-4.55-.85-5.969.853 1.328.475 3.222-.097 3.409 1.894 1.988 2.366 3.978-.759 6.441 0-.853-1.513-2.463-2.272-3.881-2.747zm13.165-2.937c2.463-.288 5.4-.666 7.291 1.14-2.366 1.038-1.988 3.688-2.744 5.685 1.325 1.984 1.609 5.872 5.019 5.681.475 1.419-1.231 1.515-1.797 2.272-.572 0-1.044.187-1.422.662 0 2.563-.284 5.4 2.085 7.01-.857 1.609-2.654.568-3.885 1.14-.284 3.025.094 6.722 3.222 8.241l2.647.181c.287 1.719-1.325 2.472-2.459 3.422-1.61.281-2.938 1.322-4.738.938.475 2.85 1.706 6.065 1.516 9.475-.094 3.878-2.178 7.387-5.4 9.562.193-2.553 0-5.775-2.747-7.287l-.944 1.134c1.419 3.6-.284 9.003 4.162 10.703-2.081 1.991-6.25 1.141-8.9.663l-5.021-1.985-4.069 1.985c-3.413-7.86-14.022.762-17.241-7.482-1.04-1.893-2.178-3.7-2.275-5.875-1.89-.284-3.597 1.897-4.831 3.413-.566.475-.472 2.656-1.797 1.612-.853-.568-1.134-1.612-1.8-2.084-.097 2.178 1.61 4.45 3.413 5.872 1.606-1.994.85-5.591 3.597-6.535 1.325 4.163 5.112 9.372 9.756 10.228 3.125.091 7.672-1.512 9.565 1.801 0 .471.094.85.472 1.137 2.657-.094 4.169-3.509 7.013-2.272 1.419 4.444 2.84 8.806 3.218 13.635 6.725 4.737 7.579 14.393 16.104 16.578 5.681 1.415 10.797-1.703 14.393-6.16 1.047-1.897 1.707-4.262 1.138-6.531-2.653-7.678-15.344-11.747-11.175-21.597.759-3.794 4.925-5.115 7.484-7.297 7.197-4.068 15.247-7.197 20.741-14.581.662-1.428.378-3.228-.472-4.55-2.369-2.656-5.591-3.794-9.094-2.941-.943.479-1.99.85-2.747 1.804-.093 1.234.85 2.178 1.804 2.746 1.321.288 3.215.569 4.353-.193.662 1.328-.285 2.659-.663 3.887-2.178 1.706-4.644 2.366-7.578 1.991-.85 2.084-1.703 4.64-4.072 5.681-3.315 3.131-10.706 0-11.365 6.156-.854.097-.854-.943-1.325-1.322-2.56-6.44 6.153-8.14 6.153-13.447l.19-2.753c-1.325-1.134-3.222-1.609-3.881-3.409 0-2.462-.284-5.494 2.081-6.537 5.685 6.059 12.6-1.041 19.51 0 5.493.096 11.653 1.706 13.643 7.2.85 10.515-10.987 15.821-18.187 20.081-3.503 2.562-9.188 3.222-10.228 8.337l.472.469c1.137-1.703 2.937-3.028 4.737-3.406 1.61 0 3.219 0 4.356.944.379 1.14-1.325.481-1.8 1.14-1.609.756-3.028 2.456-3.409 4.075 2.369-.384 5.019-2.087 7.956-1.137 3.035 1.228 6.25 5.015 9.566 2.272.572-.472.662-1.044 1.137-1.613.757.094.285 1.141.666 1.613.188 3.784-3.316 6.25-6.159 7.953-.188 0-.569-.094-.663.19 1.041.853 2.844.475 3.885-.19.281 1.043-.479 2.459-1.422 3.412-1.894 1.8-4.072 2.747-6.538 2.934.95 2.376.288 5.776-1.137 7.954 1.706.384 3.509 1.421 4.262 3.225 2.275 3.6-3.125 7.009 0 10.418-.281.666-1.419.947-1.987.469-3.507-1.884-1.232-8.99-6.819-7.006-7.956 2.934-18.66 7.1-26.425.853-.853 1.416.187 3.131.472 4.547.759 1.7 2.653 3.122 4.072 3.7-1.419 2.55-4.45 3.5-6.819 4.919 1.609.856 3.506 1.14 5.209 1.612-.947.666-2.084.947-2.934 2.081.944 3.319 6.815 2.754 6.156 7.294-.662 0-1.328-1.037-1.8 0 .472 1.991 1.988 4.356.472 6.347.191-.469-1.325-1.991-2.272-2.081-3.409 1.228-1.041 5.584-3.031 7.769-.285-.86-1.516-1.807-2.463-1.429-2.468 1.522.85 2.844-.193 4.832-.85 1.137-3.403 1.615-2.554 3.415l1.135.847c-.756.76-2.175 1.613-3.406.947-1.61-.666-1.138-3.306-3.413-2.266-.284-.475-.187-1.237-.85-1.615-1.609 1.044-2.84 3.409-5.022 2.275-.565-1.322-1.703-.285-2.272 0l-.95 1.134c-1.04-.565 0-1.794 0-2.744 1.613-1.05 2.747-3.315 4.832-3.412.287-.188.287-.569.381-.847-1.044-1.234-5.213.75-4.547-2.566-1.234-1.225-2.366.763-3.6 1.144-.284-.947.381-2.084 1.138-2.944 1.703-.756 3.596-1.037 5.018-2.459 2.841-.947 2.463 3.125 5.022 2.934 3.41-2.837 4.641-7.575 3.41-12.028-.475-.85-.757-1.793-1.422-2.556-2.366 2.272-5.4 3.694-8.807 2.744-.284-.278-.759-.278-.95-.66 2.653-1.228 4.454-3.887 4.357-6.815-2.65-1.05-3.978-3.791-4.357-6.347-.475-4.456 2.747-7.959 1.61-12.034-3.503.378-7.388 1.518-11.175 1.993.756 2.935 4.356 2.269 5.965 4.35.572 3.694-3.69 2.278-5.303 4.072-3.978 2.466-6.818 6.538-8.147 10.706-1.796-4.831-3.978 1.225-6.156 1.329-1.612.856-3.409 1.612-5.397 1.612.85-1.05 1.138-2.466 1.325-3.887-.475-1.038-1.8-1.038-2.462-.847-3.316 2.359-4.453 6.25-3.885 10.228-.946 1.987-4.165.565-4.831 2.931l-.187 2.472c-1.235.278-2.463-.197-2.938-1.338 1.422-3.4-1.325-7.665 2.75-10.031.281-.859-.475-1.334-.95-1.803-2.84-.759-2.65 3.319-5.209 3.222-3.125 1.512-3.222-2.753-5.21-2.278l-2.084 2.278c-.756-1.703.284-3.222.947-4.547 3.597-.475 2.937-6.819 7.484-5.025 1.325.288 2.178 2.75 3.881 1.609.569-.85 1.801-1.987.666-3.031-1.515-2.647-8.337.197-5.684-5.206l.475-.85c-1.044-1.044-2.088-1.994-3.697-1.616 1.231-1.415 3.222-2.365 5.209-1.606 1.991 1.894 4.832-.944 7.297.663 1.61.853 2.272 2.465 2.272 4.071.663 1.704-1.612 3.41.472 4.36 5.497-1.61 10.706-3.694 15.441-7.01-4.263-1.612-8.81-5.972-9.094-10.987 0-1.897-.094-3.788 1.137-5.209 1.703-1.994 4.263-2.75 6.819-1.994 1.8 2.372 4.547.287 6.631 0 3.219-1.322 6.535-2.269 9.566-4.169-4.45-4.919-10.516-5.969-14.775-11.078-1.8 1.422-2.181 4.072-1.609 6.347l.471.947c-3.409 2.081-7.103-6.528-9.09.378-1.331 1.425-3.319 1.703-5.022 1.137-.094-1.04 1.134-2.362-.284-3.125h-.382c-2.175 1.988-3.978 5.494-7.29 5.019-1.988-.191-4.072.281-5.685-.472.663-1.328 2.747-2.272 1.991-3.884-1.609-1.138-2.747 1.612-4.263 2.084-1.422.472-3.031.944-4.547.378.191-1.228 2.747-2.937.191-3.79-1.515.19-1.422 1.897-2.462 2.653-1.8 1.425-3.507 2.934-6.157 2.275l-.475-.378c.854-.857 2.747-1.897.947-3.222-.472-1.328 1.894-2.841-.472-3.41-3.79.191-1.897 7.482-6.821 4.735-1.326-1.135-2.747-3.222-4.547-1.325-.757.762-1.232 1.706-1.325 2.75-1.328-1.516-1.328-4.269-.95-6.35.572-3.031 4.737-.566 5.021-3.882l3.885-.287c.759-1.134-.475-1.984-1.138-2.647-1.893-.759-4.925.663-5.493-2.087.853-2.182-.379-4.641-2.463-5.207-.853.182-1.325-.478-2.084-.287 1.04-2.275 3.79-2.178 5.872-1.794 1.896 3.785 6.537-.953 7.959 3.216.187 2.272.378 4.162 2.747 5.212.662.091 1.231-.187 1.609-.668-.19-3.5-7.2-5.679-2.084-9.091-.569-1.513-1.703-2.938-3.128-3.884 1.043-.854 2.75-.754 4.075-.475 2.462 1.043 2.369 4.646 5.209 5.209.76 1.322 1.613 2.941.947 4.55-.284.947-1.516 1.703-.662 2.747 1.99 2.84 5.875.562 8.618.284 4.169 0 7.01-6.819 11.366-3.031.759-.091 1.8.475 2.275-.378-3.316-1.61-8.05-4.644-7.956-9.094 2.272 1.509 5.968 1.038 8.147-.472 5.206-3.794 6.818-11.937 13.921-12.79 7.766-.854 18.091 3.506 22.732-4.547-.944-.282-1.988.572-3.032.756-3.218.853-7.29-1.988-9.09 1.8-2.088-.666-1.516-3.41-2.275-5.022 2.843-2.366 7.578-.187 10.706-1.794-7.956-5.115-18.566-4.737-26.997-9.094-1.515-1.803-2.369-4.071-1.609-6.353.475-1.606 1.609-3.215 3.122-3.871l2.562-.485c-.569 1.522-2.562 3.034-1.14 4.738 5.875 4.834 14.115 3.79 19.987 8.437 2.178 1.513 4.075 3.5 6.156 5.206 1.61-1.228.76-3.887.666-5.681-2.656-2.75-7.956.475-10.044-3.128-1.04-1.709-.472-4.075-2.272-5.494v-2.744c3.316-.287 7.103-.471 10.228.285.857-.478.285-1.519.475-2.275 4.36-.381 7.957 1.609 12.029.847.281-.378 1.418-.757.753-1.325 2.943-.566 4.268 4.075 7.015.947zm-68.672.187c1.516.763 1.516 2.563 1.138 3.885-1.044 1.231-3.219 1.996-2.934 3.887.471.469.85 1.609 1.796 1.325 2.463-.753-.187-4.169 2.275-4.547 1.419.091 3.125 1.044 3.694-.947.378-1.134-.569-2.362-1.137-3.412 2.181.762 4.831 1.9 4.925 4.547.284 1.143-.853 1.143-1.138 2.087.475.947.188 2.081.285 3.219-1.988 1.231-5.21.094-6.157 2.656-1.137 10.416 11.463 11.741 16.575 18.463-1.043 3.7-3.693 7.962-7.672 9.29-2.556.285-4.734-.381-6.818-1.137-.854.469-.285 1.512-.475 2.269-3.691-1.044-7.294-4.169-8.428-7.954 1.231.478 2.934.282 3.884-.665-2.088-.66-4.263-1.322-5.969-2.938l-1.8-1.797c1.041-.475 2.935 1.325 4.075-.284-1.14-2.372-5.212-1.613-5.684-5.019.759.188 1.609 1.041 2.272.475.759-.572.568-1.043.284-1.806-.662-.944-1.609-1.322-2.747-1.322-.756 1.231-2.272 1.231-3.409.85-.947-.85-2.369-1.987-3.597-.85l-1.141 1.988c-.947-1.232-1.134-3.032-.753-4.547 1.041-1.9 3.313-1.991 2.747-4.541 2.553-1.331 4.922 3.594 6.628.281-.284-1.325-.853-2.562-2.084-3.225-1.041 1.519-3.031 1.519-4.544 1.141-3.888-1.044-.475-7.294-5.687-6.822-.188-1.044 1.137-1.703 1.799-2.081 2.085-.756 3.6 1.99 5.022-.378 1.707-.191 3.41-.1 4.357 1.512-.094 1.325.284 2.278 1.137 3.222.853.66 1.8 1.613 2.938.947 1.04-.756 1.418-1.991.943-3.034-1.325-1.419-3.693-2.838-2.743-5.394.662-.953 2.178 0 2.743-1.138 0-1.425-1.134-2.275-2.081-3.218 4.169-1.047 3.881 4.634 7.481 5.012zm90.741-176.169c-.191 12.882-15.437 12.407-20.744 21.785 5.966-5.491 14.113-6.156 19.607-12.503 1.421-2.65 3.125-6.535 1.137-9.282zm-3.409-4.356c-1.707 3.694-5.591 6.156-9.094 6.631.85.566 1.987.757 3.125.66a8.01 8.01 0 0 0 4.55-2.463c1.037-1.418 2.175-2.934 1.419-4.828zm-8.244-14.966c-2.459-.474-5.21-.284-7.006 1.61l.187.191c.288 0 .569.093.76-.191 1.706-1.138 2.084 1.044 3.125 1.8 2.368 1.231 3.978-1.231 5.968-1.325a6.522 6.522 0 0 0-3.034-2.085zm19.797-5.209c-2.556 1.325-1.61 4.356-2.463 6.534 1.332 2.179 1.707 6.441 5.4 5.685.191 1.419-1.422 2.462-2.462 3.028-.378-.191-.475.284-.663.381-.187 2.938-.094 5.966 2.46 7.575-.757 1.8-3.028 1.141-4.26 2.275.285 3.125.663 6.628 3.788 8.144.856.288 2.275.475 3.034-.188.188.854-.287 2.557-1.425 3.41-1.609 1.8-3.978 1.99-6.153 2.462 0 1.232.85 2.653 1.419 3.885 1.987 5.968.662 12.787-4.072 17.05h-.472c.188-3.128-.194-6.063-2.941-7.769-.565-.188-.756.475-1.134.662 1.516 3.885-.947 10.232 4.738 11.65.187 1.329-1.516 1.138-2.276 1.613-4.734.756-9.19-.475-12.974-2.556-1.613.85-3.032 2.178-5.022 2.272-3.219-6.725-11.65-1.138-16.575-4.735-2.557-2.559-4.169-5.4-5.019-8.622-2.466.76-5.022 3.503-6.063 5.872-1.328-.475-1.987-1.609-3.034-2.459.287 2.081 1.609 4.353 3.416 6.059 1.893-1.894 1.7-5.872 4.543-6.819 1.422 4.641 5.685 8.997 10.51 10.041 3.509.284 8.719-1.897 10.897 1.8v.947c3.222.85 6.156-5.306 8.903-1.137 1.137 4.546 3.222 8.715 3.409 13.637 7.578 4.456 8.05 13.263 15.913 16.769 3.884 2.553 9.85 2.747 13.828.281 3.694-2.556 7.769-6.347 6.631-11.175-2.178-9.853-18.472-13.45-14.587-25.481.471-3.313 3.412-5.397 5.874-7.672 7.576-5.681 16.957-9.188 22.066-18.184.381-1.613 1.235-3.694.288-5.213-1.516-2.65-4.169-4.45-7.107-4.544-2.081.569-4.734.378-5.868 2.653-.757 1.422 1.037 2.654 1.987 3.41 1.516-.094 3.222.378 4.359-.666.469 1.519.185 3.697-.665 5.022-1.991 1.703-4.547 2.747-7.103 2.272-1.422.95-.853 2.559-1.328 3.884-2.747 4.169-7.388 5.4-11.838 6.347-.853.853-2.181 1.325-2.747 2.463l-.19 2.084c-2.085-1.613-1.8-5.303-1.138-7.766 2.747-3.696 7.01-6.915 5.494-12.503-1.419-.95-3.406-1.515-4.166-3.125-.378-2.656-.378-6.253 1.61-7.769 7.387 6.725 13.734-3.79 22.071-2.274 5.113 0 10.322 1.043 12.691 6.156 1.894 7.2-1.231 14.115-7.197 18.85-5.687 4.925-11.937 8.05-17.809 12.503-1.231 1.328-2.181 2.747-2.272 4.547l.472.475c.947-1.8 2.841-3.222 4.547-3.888 1.8-.375 4.259-.375 5.493.95.285 1.044-1.234.76-1.799 1.138-1.894.947-3.504 2.84-3.413 5.019 1.138.093 2.275-1.325 3.603-1.61 6.628-3.694 11.838 9.663 16.86.475.85 1.135 1.134 3.313.662 4.922-1.137 3.034-3.884 5.4-6.628 6.822 1.419.85 3.312.472 4.544-.381.568 2.937-2.272 5.209-4.544 6.54-1.141.944-4.169-.193-3.888 1.794 3.316 3.222-3.978 10.422 3.694 9.569 3.6 2.368 4.456 6.537 3.6 10.706-.094 2.934-3.028 5.491-1.134 8.428l2.747 1.61c-2.178 1.137-5.4.662-7.485-.472-3.694-3.222.853-10.325-4.831-12.316-10.606.662-23.016 6.062-32.203-1.609-.472 3.315 1.231 6.44 4.266 8.431l1.606.662c-1.419 2.841-4.832 3.788-7.481 5.019 1.04.853 2.081 2.088 1.987 3.694-.472-.284-.947-.663-1.516-.475l-.471.475c1.515 1.99 3.693 4.075 2.462 7.006-.191-1.134-1.422-1.609-2.275-2.081-1.134-.285-2.272.378-2.747 1.425.097 2.365 1.422 4.734.285 7.006-.757-1.137-2.179-1.612-3.219-1.328-2.841 1.991 2.556 3.219.662 5.684-.662.95-3.128 1.328-1.987 2.938.659.284 1.325 1.322 1.987.944 0 .853-1.134 1.043-1.8 1.515-3.222 1.231-3.978-3.403-7.294-2.272-.093-.568-.662-.853-1.137-1.325-1.609 1.232-3.409 3.694-5.869 2.747-1.043-1.231-2.084-.287-2.94.472-.282.378-.282 1.044-.944 1.138-.475-.85-.947-1.991-.475-3.032 1.89-1.131 2.369-3.978 4.831-3.6.378-.281.472-.659.472-1.134-1.797-1.8-5.966 1.894-6.631-2.272-1.516-.572-2.65.944-3.882 1.797-.381-1.703.569-3.028 1.8-4.072 2.654.472 3.791-3.412 6.441-2.275 1.516 1.044 2.841 2.559 4.925 2.275 2.178-1.803 3.031-4.737 2.085-7.294-2.085.663-4.169-.187-5.876-.853 0-1.137 1.613-.565 2.276-1.419 1.043-.571 1.99-1.706 2.275-2.937-3.697-3.313-5.116-7.862-4.832-12.5a66.008 66.008 0 0 1-11.556-1.328c-.947 3.791 7.863 4.734 3.406 8.334-6.531-.569-12.594 1.988-16.572 7.578-1.612-.284-.568-3.6-2.747-2.272-3.125 1.135-7.293 1.61-10.515.379 1.137-.379 2.272-1.516 2.75-2.653-.288-1.044-.947-1.516-1.8-2.082-2.559.281-4.831 1.891-6.347 4.069-.094 1.8-.569 3.884-2.272 4.55-1.897 1.037-4.834-2.275-5.497 1.419v1.137c-1.043-.287-2.462-.287-2.934-1.609-.95-2.938 2.466-4.075 2.084-6.822 1.232-1.228 3.785-1.134 3.785-3.409-.566-1.138-1.797-1.232-2.647-1.138-1.425 1.897-4.263 1.044-6.16.853-2.275-.569-1.04-5.681-4.356-3.128-.475.288-1.04.288-1.325.856-.287-1.515.756-2.843 1.988-3.6 3.884.663 6.347-5.397 10.04-1.612.757.853 1.232 1.991 2.272 2.559 1.044.285 1.8-.378 2.463-1.137.662-4.547-9.944-3.882-3.597-8.903-.475-1.325-1.897-2.272-3.222-2.747 1.8-.853 3.978-.281 5.684.284 1.985 3.219 7.294.756 8.713 4.928 1.137 2.556-1.041 4.45-1.419 6.628l.663.663c6.156.472 12.503.284 17.993-1.325-4.447-3.6-7.481-8.431-6.156-14.303.759-1.707 1.991-3.788 3.884-4.36 3.319-.753 6.538.097 8.619 2.941 4.835.094 9.659.094 14.116-.853 1.515-2.466.187-5.494-.666-7.769-4.922-6.912-12.881-7.578-18.469-13.45-1.8 1.61-2.368 4.356-1.8 6.819l.472.759c-2.459.285-5.112-1.231-7.481-2.272-2.462 2.179-4.925 4.925-8.428 3.788-.381-.853 1.322-2.275-.191-3.128-2.081.853-3.6 2.94-5.497 4.075-3.121 1.234-6.246.475-9.753.662-.662-1.422 4.45-2.84 1.325-4.547-2.934 1.516-5.681 3.697-9.565 2.938.093-1.138 1.99-1.516 1.612-2.938-2.181-2.743-3.034 1.991-5.022 2.557-1.99 1.047-4.547 2.084-6.818 1.14.849-.853 3.312-1.99 1.418-3.415-.378-1.132 1.991-1.891.191-2.744-1.422-.947-2.747.475-3.413 1.612-.662 1.132-1.228 2.741-2.746 3.122-3.122 1.138-4.072-3.975-7.007-1.99-1.137.478-2.559 1.609-2.747 2.94-.947-1.422-1.134-3.506-.662-5.209.662-3.791 5.209-1.041 6.156-4.169 1.419-1.706 6.441 1.8 4.735-2.272-1.704-2.653-9.566 1.135-6.535-4.925.094-1.04-1.609-1.706-2.556-2.275a10.328 10.328 0 0 0-2.466-.284c1.516-1.894 4.263-2.463 6.822-1.8 2.556 3.222 10.419-1.325 8.616 5.684 1.043 1.232 2.465 2.463 4.075 1.61 1.325-.85 0-1.61-.188-2.557-1.137-.95-3.031-1.418-3.222-3.128-.853-2.365 2.463-1.8 2.275-3.881l-2.94-2.747c.572-1.137 3.506-.569 5.022-.475 1.231 2.653 4.168 3.506 5.684 5.969 1.609 2.844-4.262 5.112.475 6.819 6.25-.378 11.931-2.272 17.047-5.494 1.894.853 4.547 1.328 6.534.475-3.406-1.516-8.715-3.694-8.615-8.431 3.028 1.328 6.912.662 9.565-1.135 5.778-3.981 7.956-12.978 15.628-13.356 8.335-1.328 19.038 1.894 23.679-6.631-1.232-.378-2.369.947-3.601 1.137-3.125.853-7.671-1.137-9.375 2.747-1.8-.853-1.8-3.316-1.99-5.209 3.125-2.272 7.675-1.138 11.084-2.747-7.578-5.875-19.89-1.516-28.131-6.347-1.612-1.609-2.275-3.788-1.612-5.969.759-1.703 1.706-3.69 3.596-4.543.95.093 1.519-.757 2.563-.476-.569 1.419-2.75 2.557-1.613 4.357 5.591 4.928 14.488 1.99 20.46 6.347 2.465 1.421 4.547 3.503 7.009 4.831 1.231-1.516.663-3.978.475-5.684-3.315-2.747-11.084 2.084-11.369-4.832.191-2.365-2.272-3.031-1.321-5.681 3.403-1.044 7.478-.472 10.89-1.613-.19-1.231.094-2.365 1.61-2.271 4.075-.378 8.334 1.137 11.365-1.325v-.663c1.894-.569 3.128.756 4.547 1.61 2.556-2.272 6.819-3.504 9.944-1.61zm-77.478 9.281c1.231.663 1.328 2.085.85 3.222-1.135 1.513-4.26 2.272-3.403 4.544.562.284.85 1.234 1.606.853 1.987-.947.853-3.312 2.275-4.544 1.797 0 4.072.472 4.544-1.803-.091-.85-.472-1.703-1.138-2.462 1.047-.282 2.559.381 3.697 1.14.756.847 1.419 1.891 1.134 3.125-3.028 1.325 1.235 5.303-2.743 5.494-1.897.281-4.169.094-5.019 2.269-1.231 10.894 12.028 10.328 16.856 17.05-1.609 3.506-4.544 7.769-8.428 9.097-2.653.472-5.497.187-7.769-.95-.659.662-.756 1.612-.659 2.559-3.6-.759-7.675-3.506-8.906-7.297 1.418.475 3.031.194 4.168-.659v-.285c-3.125-.381-6.062-1.515-7.956-4.262 1.513.378 3.219 1.041 4.547-.287-1.519-2.085-5.022-1.229-5.969-4.072.85-.285 1.8.665 2.747 0l.663-.85c-.663-1.328-2.179-2.463-3.6-1.61-.85.944-1.988.944-3.222.85-.85-1.04-2.369-1.422-3.597-.85-.853.282-1.325 1.232-1.613 1.988-.943-.666-1.137-2.369-.659-3.6.472-2.178 4.072-1.894 3.409-4.738 2.747-1.893 5.113 3.222 7.01-.472-.191-1.137-.382-2.271-1.613-2.747-1.516.854-3.219 2.275-5.209 1.326-3.41-.85-.285-6.819-5.206-5.872 0-1.422 1.703-1.894 2.743-2.275 3.222 2.084 6.535-3.504 9.094.665-.475 1.325.569 2.747 1.8 3.41 1.328.853 2.463-.285 3.409-1.325.569-3.222-5.018-3.694-2.081-7.104 1.041.188 2.178 0 2.553-1.137l-1.8-2.463c4.075-1.515 3.885 4.357 7.485 4.072zm-168.882 15.063c-.568 12.691-15.725 12.691-21.218 21.784 6.062-6.065 15.059-6.065 20.268-13.168 1.328-2.463 2.369-5.966.95-8.616zm-3.696-4.169c-1.894 3.41-5.304 5.966-9.091 6.441l.284.19c2.557 1.038 5.491.188 7.482-1.803 1.043-1.325 2.084-3.219 1.325-4.828zm-7.954-14.775c-2.465-.191-5.781-.759-7.297 1.61h.476c1.706-.854 2.559.378 3.409 1.609 2.181 1.325 4.356-1.422 6.156-1.138-.662-.759-1.706-1.609-2.744-2.081zm19.604-4.928c-2.557 1.138-1.704 4.072-2.557 6.062 1.703 1.988 1.991 6.441 5.685 5.685-.191 1.325-1.325 2.556-2.463 3.028-.381 0-.665.381-.947.666.566 2.459-.381 5.681 2.556 7.009.188 1.231-1.231 1.134-1.893 1.609-.947-.093-1.894-.093-2.466.947.763 3.031.856 6.916 4.547 8.144.95.097 1.8-.091 2.466-.472.19 1.894-.95 3.409-2.466 4.356a12.687 12.687 0 0 1-5.019 1.328c1.138 3.979 2.841 8.619 1.8 13.45a15.758 15.758 0 0 1-4.925 7.482c0-2.747-.475-6.535-3.694-7.766l-.662.947c1.419 3.881-.475 9.944 5.019 11.366-.191.947-1.422 1.137-2.272 1.325-4.928.853-9.472-.285-13.45-2.463-1.328 1.328-3.125 1.609-4.738 2.463-4.262-8.05-16.006 1.137-19.797-8.144-1.04-1.516-1.512-3.222-1.8-5.022-2.556.191-5.303 3.031-6.343 5.494-1.516.097-2.463-1.61-3.222-2.557-.094 2.369 1.894 4.832 3.887 6.157 1.61-1.988 1.038-5.872 4.072-6.538 1.797 4.266 5.494 8.622 10.228 9.756 3.885.285 10.419-2.081 11.841 2.938 3.031.097 4.734-3.787 7.953-2.462 1.991 4.643 3.413 9.471 4.072 14.774 7.203 3.788 7.769 12.41 15.253 15.916 4.263 2.841 11.272 3.503 15.628.188 2.65-1.894 5.588-4.454 5.966-7.766.472-12.316-20.269-15.538-14.303-29.269 4.643-7.672 13.356-10.325 19.987-15.722 3.885-3.506 9.472-7.39 8.147-13.165-1.137-2.56-3.79-4.169-6.347-4.738-2.843 0-5.968.378-7.294 3.125.569 1.138 1.326 2.272 2.557 2.747 1.422-.187 3.222.569 4.262-.662.475 1.418.285 3.6-.662 5.018-2.178 1.422-4.263 2.844-7.294 2.275-1.419 1.894-.756 4.641-3.125 6.06-3.697 4.547-12.406 1.14-12.975 8.431-2.178-1.516-1.612-4.828-1.422-7.291 2.841-3.79 7.2-7.106 5.684-12.693-1.518-.947-3.79-1.516-4.262-3.6 0-2.747-.284-5.4 1.609-7.294 7.104 6.822 13.45-3.125 21.31-2.084 5.778-.472 11.65.95 14.112 6.346 1.803 7.01-1.512 12.882-6.628 17.525-5.872 5.397-12.597 8.522-18.85 13.163-1.325 1.328-2.369 3.034-1.8 4.834 1.138-1.706 3.222-3.315 5.21-3.884 1.803.094 3.981-.285 5.021 1.134.285 1.235-1.234.285-1.609.95-1.894 1.228-3.6 2.65-3.884 4.925 2.462-.853 5.396-2.559 8.712-1.518 3.222.856 5.588 4.737 9.472 3.412 1.044-.759 2.275-1.8 2.747-3.031 1.231 2.462.759 5.681-.853 7.765-1.513 1.8-3.503 2.841-5.019 4.072 1.328.95 3.125.382 4.263-.472.853 1.325-.379 2.747-1.138 3.885-1.894 2.368-4.547 2.84-7.197 3.412-.472.66.663 1.228.663 2.081 0 2.463 0 5.022-.947 7.01 1.8.565 3.79.853 5.209 2.272 4.641 3.884 1.988 11.081.475 15.44.094 1.325.566 2.65 1.797 3.222.572.281 1.706.188 1.609.944-2.175.947-5.206.853-7.29-.472-3.978-3.125.756-10.325-4.925-12.312-10.797.659-23.303 6.25-32.582-1.61-1.043 1.513.66 3.028.757 4.544.85 1.987 2.934 3.884 4.925 4.356 0 2.275-2.938 2.747-4.547 4.075.187.663.472 1.419 1.137 1.61 3.41.947 8.05.381 9.566 4.356-.853-.284-1.609-.191-2.275.378 1.988 1.706 4.831 3.697 3.694 6.628-.569-1.134-1.706-1.797-3.028-1.797-.95 0-1.707.76-1.991 1.61.097 2.462 2.559 4.265 1.325 7.012-.85-.759-1.894-1.422-3.122-1.137-.665.472-1.328 1.325-.759 2.081 1.04.853 2.653 1.703 2.081 3.412-.378 1.135-2.178 1.232-2.081 2.65.853.757 1.512 1.894 2.747 1.422-.95 1.61-2.938 2.182-4.738 1.61-1.515-.094-2.462-2.841-4.072-1.138-.947 0-1.325-1.137-2.084-1.415-.947 1.131-1.61 2.459-2.935 3.215-1.518.763-3.125-.662-4.359.188-.569.665-1.325 1.231-1.325 2.087-.756.191-.947-.662-1.137-1.134-.378-2.653 2.181-4.738 3.884-5.688.281-.378 1.041-.944.378-1.419-2.081-1.137-5.587 2.557-7.009-1.515-1.325.287-2.369 1.419-3.41 2.462-.475-1.231-.093-2.653.663-3.6 2.844-.093 3.981-4.828 7.106-3.412 1.513.759 3.028 2.275 4.922 1.331 1.994-2.181 1.994-6.066.95-8.622-1.041-2.365-3.125-4.45-5.209-6.156-2.653 3.597-7.2 4.45-11.654 3.597-.471-.278-1.134-.278-1.512-.85 1.8-.76 3.788-1.991 4.734-3.885 0-1.04 1.041-2.271 0-3.218-2.459-.853-4.734-3.506-4.734-6.347l-.475-.472c-4.641.284-8.809-.381-12.978-1.138-.66 3.691 7.484 4.451 3.6 8.241-6.819-.569-12.878 1.894-16.763 7.481-.853-.284-1.137-1.609-1.612-2.462-3.316 1.515-8.147 1.8-11.841.662 1.141-.565 2.75-1.797 2.75-3.221-1.328-2.46-3.503-1.041-5.212-.472-1.703 1.515-4.072 3.128-3.41 5.681-.853 2.181-3.506 1.612-5.209 1.425-.472-.666-.756.284-1.137.187-.663.757-1.038 1.61-1.135 2.557-1.422.381-2.462-.663-3.031-1.61-.569-2.559 2.462-3.597 1.897-6.156 1.134-1.8 4.259-1.138 4.068-3.884-.85-.566-1.799-1.61-2.934-.853-1.99 1.424-4.547 1.137-6.631.193-1.041-.759-.569-2.084-1.325-2.94-1.61-.378-2.556.475-3.694 1.137-.094-.565.094-2.081.947-2.747 1.8-1.703 4.831-.472 6.344-2.934.95-.756 2.559-.572 3.6-.285 2.178.85 2.368 4.263 5.022 3.219.756-.662 1.609-1.515.943-2.462-1.134-2.653-6.534-1.422-5.015-5.494.187-.85 1.609-1.228 1.325-2.272-.853-1.137-1.988-1.612-3.125-2.084 1.418-1.231 4.165-.472 5.872.284 1.706 2.844 5.778.853 7.768 3.409 1.322 1.135 1.322 3.125.85 4.735-.19 1.137-1.99 1.991-1.325 3.222l.947.662c5.969-.094 12.313.472 17.713-1.325-4.263-3.693-7.766-8.525-5.969-14.4.759-1.797 1.987-3.312 3.884-4.072 3.219-.756 6.347.094 8.428 2.75 4.832.472 9.757-.19 14.588-.668 2.275-1.794 2.178-5.207 1.8-7.953-3.694-8.807-13.734-9.282-19.794-15.722-1.234 1.137-2.084 2.934-2.084 4.831l.756 2.937c-2.841-.381-5.209-1.706-7.769-2.559-2.368 2.272-4.734 5.213-8.428 3.694.285-1.135 1.044-1.988 0-2.935-2.653.753-4.169 4.26-7.009 4.547h-8.619c.284-1.612 2.369-1.897 2.653-3.415-1.99-2.269-3.787 1.14-5.875 1.518-1.609.091-3.312.854-5.018.285.378-1.044 1.987-1.516 1.799-2.744-2.271-3.034-2.937 1.894-4.928 2.272-2.081 1.137-4.734 2.175-7.103 1.137.569-.95 2.275-.572 2.088-2.087-.666-.381-.76-1.041-.666-1.797.284-.475 1.231-.759.853-1.609-.756-.475-1.8-.95-2.747-.382-2.178 1.61-2.556 6.441-6.534 4.263l-2.938-2.272c-1.703.566-3.884 1.416-4.356 3.406-1.328-.943-1.328-3.122-.947-4.734.472-4.259 5.494-.947 6.628-4.547 1.613-.947 3.979 1.044 5.019-.947-.944-4.356-10.134.569-7.103-5.872.191-1.515-1.609-1.515-2.462-2.275-.757-.378-1.797-.187-2.747-.284 1.518-2.272 4.737-2.175 7.293-1.797 2.179 3.031 10.232-1.419 8.432 5.494 1.04 1.231 2.462 2.175 3.884 1.8.569-.191 1.231-1.044.663-1.613-1.138-2.178-5.022-2.556-3.694-5.681.756-.759 2.175-.947 2.081-2.275-.756-1.228-2.081-1.987-3.219-2.747 1.325-1.137 3.694-.566 5.303-.378 1.235 2.937 4.644 3.125 5.875 6.062 1.232 2.654-4.168 5.494.66 6.632 6.062-.663 11.844-2.178 16.862-5.497 2.275.191 4.547 1.706 6.822.475-3.412-1.516-8.812-3.691-8.622-8.431 3.122 1.518 7.01.381 9.753-1.322 5.497-3.978 8.054-12.6 15.444-12.978 8.238-1.516 19.416 2.084 23.866-6.538-1.041-.284-2.085.853-3.219 1.138-3.222.853-7.956-1.325-9.756 2.653-2.085-.569-1.516-3.125-2.272-4.735 2.934-2.75 8.05-1.043 11.362-3.221-7.671-5.4-19.606-1.516-27.94-5.872-1.513-.666-1.8-2.369-2.275-3.6 0-2.844 1.137-5.304 3.603-6.819l2.747-.76c-.76 1.419-2.181 2.747-1.613 4.357 5.969 4.928 14.966 2.369 21.219 6.631l6.347 4.547c1.516-1.609.947-4.169.475-6.156-3.412-1.8-9.853 2.178-10.991-3.41.569-2.559-2.747-3.506-1.515-6.347 3.409-.853 6.915-1.231 10.609-1.421.472-.757 0-2.46 1.134-2.46 4.454-.381 8.622.944 12.313-1.141v-.946c1.897-.472 3.225.759 4.55 1.609 2.653-2.366 6.631-3.219 10.038-1.797v.472zm-77.763 9.284c3.6 3.978-7.103 5.3-1.419 8.144 1.988-.947.947-3.503 2.553-4.544 1.803-.284 3.7.85 4.266-1.515.475-1.328-.663-1.897-1.134-2.75 1.987.287 4.45.853 5.015 3.128.378 1.137-.472 1.609-1.134 2.272-.285 1.328.947 4.64-1.8 4.359-1.894.281-4.169.094-5.022 2.269-.472 3.506 1.141 6.915 4.359 8.903 4.166 2.559 9.282 3.697 12.694 7.675-1.516 3.506-4.453 7.484-8.147 9.094-2.747.475-5.778.284-8.24-.663-.569.663-.76 1.325-.666 2.272-3.597-.947-7.953-3.219-8.806-7.294 1.512.853 2.937.097 4.259-.662-.659-.947-2.081-.097-2.934-.663-2.085-.378-3.6-2.084-5.213-3.409 1.141-.381 3.319.944 4.55-.475-1.422-2.275-5.4-.947-5.965-4.356.756.565 1.987.565 2.743.284.191-.475.666-.853.472-1.422-1.037-.568-1.703-1.8-3.215-1.325-.854 1.041-2.179 1.231-3.6 1.138-.95-1.044-2.369-1.422-3.6-.95l-1.613 2.084c-.947-.187-1.134-2.462-.659-3.6.659-2.272 3.978-1.703 3.409-4.547 2.653-2.178 5.397 3.413 7.197-.756-.094-.853-.569-1.8-1.325-2.272-1.044-.759-1.894.756-2.466 1.135-1.987.096-4.356.284-5.015-1.8.093-1.516 0-3.125-1.422-3.882-.569-.381-1.328-.097-1.991-.19.188-.947 1.138-1.8 1.991-2.082 3.031 1.419 5.206-1.612 8.428-.853 2.369 1.041.853 4.922 4.075 5.019 1.134 0 1.987-.759 2.747-1.609.378-2.938-5.591-4.263-1.803-7.104.95.188 1.706-.096 2.275-.856l-1.8-2.553c4.453-1.515 3.981 4.544 7.956 4.356zm181.55 176.932v169.828c2.928 11.837 15.594 20.753 26.453 23.972-4.441 5.4-10.953 7.484-18.128 6.159-5.666-1.325-10.672-4.266-15.391-7.953.854 6.253 1.513 13.922-.943 19.978-2.169 5.216-5.757 10.422-10.857 13.834h.016c-5.1-3.412-8.687-8.618-10.859-13.834-2.454-6.056-1.794-13.725-.944-19.978-4.722 3.687-9.725 6.628-15.391 7.953-7.172 1.325-13.684-.759-18.125-6.159 10.857-3.219 23.522-12.135 26.45-23.972V354.316l-.006-.007H129.285c-11.841 2.925-20.759 15.597-23.981 26.447-5.397-4.434-7.482-10.95-6.157-18.125 1.329-5.665 4.263-10.672 7.957-15.381-6.253.844-13.922 1.503-19.985-.95-5.209-2.169-10.418-5.756-13.828-10.856v.012c3.41-5.097 8.619-8.684 13.828-10.853 6.063-2.459 13.732-1.797 19.985-.947-3.694-4.719-6.628-9.725-7.957-15.387-1.325-7.172.76-13.688 6.157-18.125 3.222 10.859 12.14 23.522 23.981 26.447H266.86l.003-.007V208.716c-2.925-11.841-15.594-20.76-26.447-23.982 4.438-5.396 10.95-7.481 18.122-6.156 5.666 1.325 10.672 4.263 15.391 7.956-.85-6.25-1.513-13.922.944-19.984 2.171-5.209 5.759-10.419 10.856-13.828h-.013c5.1 3.409 8.688 8.619 10.857 13.828 2.456 6.062 1.796 13.734.946 19.984 4.716-3.693 9.722-6.631 15.388-7.956 7.172-1.325 13.687.76 18.125 6.156-10.856 3.222-23.522 12.141-26.45 23.982v107.868l.003.01h143.438c11.84-2.928 20.759-15.591 23.981-26.447 5.397 4.437 7.481 10.953 6.153 18.125-1.325 5.662-4.263 10.672-7.956 15.387 6.253-.85 13.925-1.509 19.987.944 5.21 2.172 10.416 5.756 13.828 10.859v-.015c-3.412 5.097-8.618 8.684-13.828 10.853-6.062 2.459-13.734 1.8-19.987.95 3.693 4.716 6.631 9.722 7.956 15.384 1.328 7.179-.756 13.691-6.153 18.129-3.222-10.857-12.141-23.529-23.981-26.447H304.585zm232.231-213.272H35.107V6.394h501.709v134.65zM543.248 0H28.732l.003 220.869c2.375 53.95 11.694 100.287 28.484 141.656 38.466 91.572 107.825 173.884 185.56 220.222.137.078 10.75 5.906 10.75 5.906 10.037 5.569 20.418 11.331 31.169 15.61l1.287.512 1.3-.512c10.747-4.279 21.125-10.041 31.166-15.61l10.609-5.828c77.872-46.416 147.238-128.728 185.681-220.256 16.81-41.413 26.128-87.75 28.5-141.7L543.248 0z" fill="#98002e" fill-rule="nonzero"/><path d="M291.557 78.787c-2.147 2.294-5.166 3.135-8.278 2.3-2.416-.643-4.738-2.909-5.397-5.271a8.67 8.67 0 0 1-.294-2.207c0-2.521 1.15-4.762 3.231-6.315.007-.003.032-.022.032-.022 2.068-1.566 5.531-1.941 7.884-.863l.066.032c1.74.771 3.325 2.262 4.028 3.8l.022.04c.003.01.025.053.025.053.431.891.662 1.95.662 3.063 0 2.012-.74 4.028-1.981 5.39zm5.975-10.625a11.156 11.156 0 0 0-1.394-2.243 12.971 12.971 0 0 0-1.191-1.322 12.408 12.408 0 0 0-.859-.775 13.62 13.62 0 0 0-1.403-1.022 12.737 12.737 0 0 0-1.766-.956c-4.078-1.875-9.634-1.272-13.215 1.431l-.003.003c-.029.022-.06.05-.091.072a13.355 13.355 0 0 0-3.028 3.187 12.66 12.66 0 0 0-2.15 7.072c0 1.16.156 2.338.462 3.488l.013.047c.312 1.115.819 2.19 1.469 3.19a13.647 13.647 0 0 0 2.828 3.144c1.4 1.147 3.015 2.019 4.712 2.472 4.222 1.131 8.488.281 11.794-2.263a13.722 13.722 0 0 0 1.666-1.509l.031-.034a11.9 11.9 0 0 0 1.222-1.61c1.328-2.071 2.065-4.581 2.065-7.147 0-1.853-.4-3.656-1.162-5.225zm36.344 17.516l-.175.713-.638-.357c-6.794-3.768-13.256-6.09-19.756-7.09l-.035-.007c-5.562-.765-10.431.122-14.234 2.522-2.634 1.591-4.528 4.253-4.528 4.253-.078.104-.153.207-.228.31l-.016.025-.022.031c-2.456 3.769-3.69 8.3-3.69 13.513 0 1.337.081 2.721.244 4.146.75 6.557 3.087 12.666 4.928 16.66a39.79 39.79 0 0 0 .909 1.953l.309.625-.681.166c-7.587 1.815-16.606 1.753-24.128-.175l-.706-.182.356-.634c3.509-6.247 7.534-14.678 7.534-24.528l-.046-1.897v-.028l-.004-.038c-.303-3.678-1.228-7.247-2.978-9.681 0 0-2.2-3.184-4.39-4.537-.607-.438-1.516-.932-2.178-1.291-4.388-2.538-9.563-3.216-15.547-2.2-4.497.763-9.3 2.506-14.266 5.178l-.025.013a80.449 80.449 0 0 0-3.847 2.265l-.656.416-.185-.756c-.899-3.713-1.374-7.875-1.374-12.032 0-3.837.387-7.581 1.153-11.122l.153-.709.647.331c6.106 3.132 14.315 6.828 23.656 7.641 0 0 .028.003.05.003 5.475.35 9.756-.759 12.997-3.39 0 0 2.359-1.691 4.178-4.594 2.175-3.197 3.278-7.175 3.278-11.882l-.016-.906c-.181-6.347-2.303-12.353-3.547-15.372a89.17 89.17 0 0 0-4.471-9.212l-.357-.635.707-.178c8.118-2.05 17.681-1.968 25.578.222l.687.188-.347.619c-1.668 2.99-3.228 6.39-4.759 10.403l-.009.028c-1.272 3.468-2.8 8.74-2.869 14.178l-.003.381c0 4.597 1.069 8.459 3.165 11.531 0 0 2.244 3.082 4.582 4.347 3.456 2.216 7.65 3.363 12.943 3.553h.075c7.313 0 14.357-2.122 22.169-6.678l.666-.39.162.756c.722 3.359 1.091 6.969 1.091 10.725 0 4.387-.522 8.815-1.506 12.806zm2.118-27.784l-.09.159c-7.3 4.647-15.047 8.244-24.269 8.244-4.6-.166-8.887-1.097-12.528-3.597-1.819-.994-3.472-3.394-3.472-3.394-4.794-6.931-2.744-17.372-.116-24.544 1.728-4.521 3.738-8.956 6.375-13.068-10.062-3.757-23.434-3.791-33.637-.303a87.103 87.103 0 0 1 6.106 12.003c3.213 7.762 5.722 19.418.194 26.981-1.131 1.697-3.147 3.387-3.147 3.387-3.262 2.844-7.503 3.557-12.038 3.266-9.615-.837-17.965-4.684-26.121-9.062-2.866 9.65-2.775 21.953.428 31.371 2.19-1.584 4.453-2.953 6.765-4.237 8.013-4.309 19.591-8.153 28.457-3.009.85.462 1.625.993 2.347 1.578 1.021.765 2.634 2.84 2.634 2.84 2.062 2.76 2.978 6.138 3.262 9.579.55 10.809-3.831 19.799-8.922 28.381v.125c9.616 3.347 22.238 3.437 31.963.25-.822-1.566-1.659-3.116-2.35-4.738-4.344-9.4-7.978-23.056-1.675-32.725.153-.222.312-.434.475-.644 0 0 1.081-1.609 3.297-3.121 3.762-2.575 8.531-3.194 13.412-2.522 7.979 1.231 15.172 4.381 21.972 8.493 0 0 .225.157.247.085 3.178-9.638 3.444-22.116.431-31.778zm-24.603 12.031c-8.15-.091-13.103-2.672-13.103-2.672 1.735 2.344 1.844 6.178 1.844 6.178 0 2.391-.713 4.785-1.953 6.772 7.009-4.153 15.344-2.678 15.344-2.678 6.296.909 12.546 2.987 19.078 6.319.843-3.425 1.3-7.166 1.3-10.888 0-3.134-.313-6.14-.91-8.969-7.562 4.035-14.45 5.938-21.6 5.938zM290.407 60.1c.584.306 1.031.619 1.725 1.275l-.366-.625c-2.006-3.178-3.025-7.194-3.025-11.984l.003-.379c.06-5.375 1.385-10.562 2.485-13.975l.012-.034c1.222-3.631 2.469-6.737 3.794-9.509-6.228-1.828-13.597-1.9-19.991-.197A90.234 90.234 0 0 1 278.573 33c1.084 2.962 2.918 8.872 3.078 15.141l.012.9c0 4.906-1.056 9.04-3.137 12.343 3.297-2.634 8.234-3.187 11.881-1.284zm-4.284 28.206c-1.347.081-2.791-.131-4.097-.525-1.416-.428-2.407-.753-3.607-1.784 2.447 5.803 2.55 9.912 2.55 9.912l.003.057.004.043.04 1.879c0 9.381-3.24 17.403-6.187 23.45 5.909 1.593 12.831 1.65 18.787.146a31.685 31.685 0 0 1-.522-1.287c-1.584-3.906-3.596-9.884-4.246-16.313a41.46 41.46 0 0 1-.213-4.109c0-.125.009-.247.013-.366a56.03 56.03 0 0 1 .143-2.978 26.57 26.57 0 0 1 .366-2.768c.162-.872.415-1.716.634-2.572.306-1.182 1.719-4.375 2.107-5.06-.654.388-1.279.966-1.954 1.303-1.212.603-2.497.894-3.821.972zm-14.66-11.231a12.804 12.804 0 0 1-.49-3.478c0-2.303.656-4.497 1.868-6.428-3.393 2.612-7.853 3.718-13.534 3.375l-.072-.003c-9.019-.738-16.937-3.975-22.937-6.828a44.698 44.698 0 0 0-.976 9.356c0 3.49.41 6.968 1.163 10.131a75.544 75.544 0 0 1 3.166-1.734l.025-.016c4.975-2.509 9.79-4.153 14.315-4.872 0 0 10.36-2.284 18.925 3.572-.562-.884-1.153-2.063-1.437-3.025l-.016-.05z" fill="#98002e" fill-rule="nonzero"/></svg>